<svg width="601" height="829" viewBox="0 65 601 829" fill="none" xmlns="http://www.w3.org/2000/svg"><g clip-path="url(#a)"><path d="M1085 64.475H-391.852v829.867H1085V64.475Z" fill="url(#b)"/><path opacity=".49" d="M386.606 245.926c22.694-22.67 22.694-59.427 0-82.098s-59.489-22.671-82.183 0c-22.695 22.671-22.695 59.428 0 82.098 22.694 22.671 59.489 22.671 82.183 0Z" fill="url(#c)"/><path d="M529.47 792.407a29.226 29.226 0 0 0-5.876-15.931 29.296 29.296 0 0 0-45.223-1.798 29.222 29.222 0 0 0-4.475 32.185 29.246 29.246 0 0 0 11.529 12.474 29.295 29.295 0 0 0 36.69-5.785 29.236 29.236 0 0 0 7.355-21.145Z" fill="url(#d)"/><path opacity=".06" d="M503.747 795.665a3.39 3.39 0 0 1-5.954-1.932 3.377 3.377 0 0 1 .801-2.463c1.215-1.43 115.655-128.983 115.717-128.945.461.384-109.349 131.918-110.564 133.34Z" fill="#fff"/><path opacity=".13" d="M503.656 795.588a3.26 3.26 0 0 1-2.242 1.195 3.268 3.268 0 0 1-2.727-5.437c1.169-1.367 108.071-120.43 108.156-120.361.484.399-102.018 123.228-103.187 124.603Z" fill="#fff"/><path opacity=".19" d="M503.563 795.503a3.155 3.155 0 0 1-5.446-1.832 3.146 3.146 0 0 1 .654-2.255c1.131-1.322 100.464-111.887 100.587-111.779.492.423-94.664 114.553-95.795 115.866Z" fill="#fff"/><path opacity=".25" d="M503.487 795.427a3.032 3.032 0 0 1-5.003-.58 3.005 3.005 0 0 1-.188-2.308c.122-.378.318-.728.575-1.031 1.085-1.268 92.857-103.334 93.019-103.196.5.423-87.334 105.847-88.403 107.115Z" fill="#fff"/><path opacity=".31" d="M503.378 795.35a2.922 2.922 0 0 1-1.979 1.008 2.897 2.897 0 0 1-2.113-.685 2.896 2.896 0 0 1-.323-4.088c1.038-1.214 85.241-94.782 85.449-94.605.515.43-79.996 97.148-81.034 98.37Z" fill="#fff"/><path opacity=".38" d="M503.287 795.273a2.783 2.783 0 0 1-3.021.929 2.787 2.787 0 0 1-1.944-2.489 2.787 2.787 0 0 1 .734-2.051c1-1.168 77.635-86.238 77.881-86.061.531.484-72.681 88.504-73.65 89.672Z" fill="#fff"/><path opacity=".44" d="M503.194 795.219a2.652 2.652 0 0 1-1.816.923 2.674 2.674 0 0 1-1.938-.631 2.663 2.663 0 0 1-.8-2.845c.108-.332.281-.639.508-.905.954-1.114 69.996-77.684 70.32-77.439.538.438-65.32 79.752-66.274 80.897Z" fill="#fff"/><path opacity=".5" d="M503.102 795.112a2.545 2.545 0 0 1-2.788.924 2.546 2.546 0 0 1-1.542-1.319 2.54 2.54 0 0 1-.082-2.026c.127-.325.32-.621.566-.868.908-1.068 62.42-69.156 62.75-68.856.539.469-57.997 71.077-58.904 72.145Z" fill="#fff"/><path opacity=".56" d="M503.009 795.035a2.412 2.412 0 0 1-1.648.839 2.415 2.415 0 0 1-2.029-3.974c.87-1.015 54.813-60.588 55.182-60.266.562.477-50.636 62.386-51.505 63.401Z" fill="#fff"/><path opacity=".63" d="M502.917 794.958a2.308 2.308 0 0 1-4.028-2.192c.122-.297.304-.566.536-.79.823-.96 47.205-52.035 47.613-51.682.577.492-43.298 53.696-44.121 54.664Z" fill="#fff"/><path opacity=".69" d="M502.825 794.873a2.186 2.186 0 0 1-2.337.672 2.162 2.162 0 0 1-1.274-1.089 2.185 2.185 0 0 1-.121-1.67c.091-.272.235-.524.425-.74.769-.915 39.598-43.484 40.044-43.1.592.515-35.96 45.021-36.737 45.927Z" fill="#fff"/><path opacity=".75" d="M502.717 794.797a2.053 2.053 0 0 1-3.077.455 2.055 2.055 0 0 1-.712-1.553 2.046 2.046 0 0 1 .712-1.553c.769-.861 31.983-34.932 32.483-34.517.5.415-28.637 36.307-29.406 37.168Z" fill="#fff"/><path opacity=".81" d="M502.64 794.72a1.936 1.936 0 0 1-2.723.215 1.927 1.927 0 0 1-.215-2.72c.692-.807 24.375-26.387 24.914-25.926.538.461-21.284 27.616-21.976 28.431Z" fill="#fff"/><path opacity=".88" d="M502.547 794.643a1.812 1.812 0 0 1-3.182-1.034 1.805 1.805 0 0 1 .429-1.317c.646-.769 16.768-17.835 17.345-17.343.577.492-13.945 18.933-14.592 19.694Z" fill="#fff"/><path opacity=".94" d="M502.456 794.566a1.688 1.688 0 0 1-1.164.63 1.695 1.695 0 0 1-1.85-1.583 1.699 1.699 0 0 1 .444-1.245c.608-.707 9.162-9.282 9.777-8.759.615.522-6.6 10.242-7.207 10.957Z" fill="#fff"/><path d="M502.363 794.451a1.539 1.539 0 0 1-2.496-1.764 1.538 1.538 0 1 1 2.496 1.764Z" fill="#fff"/><path d="M-420.188 470.464c-48.044 267.402 251.633 107.407 379.742 84.524 66.343-11.426 144.116-25.134 169.284 50.276 22.875 70.846-27.453 143.967 22.875 205.669 36.298 43.898 95.38 51.175 130.324 92.638 38.529 45.758 85.657 58.137 144.177 63.377 51.459 4.61 105.203-4.149 119.179-62.44 11.415-47.64-28.622-76.755-71.535-79.913-78.88-5.794-194.336 28.638-230.65-66.228-29.706-77.639 50.329-143.936 20.592-214.774-25.16-59.413-121.24-84.524-180.722-89.134-141.83-9.144-249.348 84.523-386.603 98.262-82.349 6.87-96.079-41.124-105.248-107.391-13.723-86.829-102.941-31.996-77.781 6.854" fill="url(#e)" opacity=".2"/><path d="M-175.902 259.317c-32.114 76.555 79.103 108.674 131.016 96.311 71.689-14.815 197.759-88.904 262.033-19.756 27.191 29.637 24.721 71.615 61.796 96.311 37.075 24.696 84.05 19.755 111.241-12.348 79.103-91.37-64.274-116.028-121.132-140.763-81.573-37.044-158.208-111.125-71.689-185.183 27.206-22.253 86.534-44.475 91.472-86.46 2.469-49.385-69.227-59.267-106.294-64.207C98.491-64.178-5.334-39.49-7.803 59.288c-2.47 74.081 84.05 170.392-24.722 207.467-66.743 19.755-86.519-51.859-135.962-46.918 0 24.696-14.83 101.251 19.776 101.251" fill="url(#f)" opacity=".2"/><path d="M705.507 231.57c-55.959 35.346-315.138 253.025-212.051 317.755 106.025 64.729 279.793-79.437 376.988 14.707 64.797 64.73-2.946 170.645 108.972 220.66 85.384 41.194 232.674-32.365 291.574-100.037 79.52-85.292 11.78-217.718-100.14-152.996-70.68 38.251-182.596 120.639-182.596-17.673 0-58.844 61.846-235.375-47.121-203.01-45.729 13.439-81.842 46.104-115.802 77.985-33.613 31.565-72.519 59.765-104.071 92.883-26.684 28.008-49.229 48.086-91.972 42.854-35.822-4.388-65.466-28.431-64.812-66.613 1.084-63.277 68.973-85.169 104.802-122.943 25.56-26.971 75.673-94.42 24.452-121.222" fill="url(#g)" opacity=".2"/><path opacity=".83" d="m574.452 578.316-.046 14.746s-156.969 48.662-251.21 93.913c-94.242 45.251-167.153 108.874-167.153 108.874l23.614-6.485C119.891 824.902.436 870.722.436 870.722v-.085a15.27 15.27 0 0 0-.439-1.713c-1.815-6.147-10-26.402-39.998-33.402-34.606-8.03-113.402 17.542-117.971 19.048 2.785-1.053 33.014-12.417 72.912-32.127a853.134 853.134 0 0 0 31.537-16.359C-11.88 783.401 75.3 714.03 75.3 714.03l-35.383 7.907 116.148-87.09 16.153-6.915s-45.636 40.279-41.621 44.259c4.015 3.981 137.954 19.126 239.049-11.802s204.805-82.073 204.805-82.073Z" fill="#D64A43"/><path d="m343.318 677.655-153.33 43.391 27.06 1.176-116.317 41.877 14.068-13.639-102.771 56.339L89.978 777l66.073 18.849-47.159 17.812-77.52 8.99 55.383 1.252-45.198 22.368-48.128-3.304 7.015 27.77s151.738-60.765 179.221-81.358l-23.591 6.486s93.28-80.398 187.244-118.21Z" fill="url(#h)"/><path d="m94.83 710.711 55.02-21.554-33.975 6.324-21.045 15.23Z" fill="url(#i)"/><path opacity=".83" d="M505.848 117.34S369.371 214.066 328.75 233.591c0 0 40.136-23.936 67.435-68.81l-4.454 14.085 72.35-64.499 4.039 4.364 84.272-30.305-46.544 28.914Z" fill="url(#j)"/><path opacity=".83" d="m464.073 114.359-18.015 25.242 21.468-11.734-80.48 58.053 4.677-7.054 72.35-64.507Z" fill="#D64A43"/><path d="m285.951 477.664 62.174-44.06-37.729 19.08-24.445 24.98Z" fill="#D64A43"/><path d="M-274.073 366.692s85.972-95.281 167.291-153.441c81.319-58.159 122.955-85.714 122.955-85.714s-103.187 81.742-112.348 97.371c-9.161 15.629 22.915 14.761 22.915 14.761l-46.244 41.808 14.253-1.014-104.733 69.509s42.036-35.384 48.728-46.803c6.692-11.418-14.468-6.147-30.637-1.921-16.168 4.226-82.18 65.444-82.18 65.444Z" fill="url(#k)"/><path d="m57.548 101.288-40.483 25.765s7.115-13.831 13.846-19.533c6.73-5.701 26.637-6.232 26.637-6.232Z" fill="#D64A43"/><path opacity=".83" d="M501.018 391.243S699.469 260.915 872.16 194.795c172.69-66.121 260.12-95.965 260.12-95.965s-222.884 98.085-246.598 121.767c-23.714 23.682 34.106 37.091 34.106 37.091l-102.302 53.219 25.983 4.833-219.989 75.51s91.78-43.691 109.095-60.987c17.314-17.297-23.014-17.742-53.92-17.742-30.907 0-177.637 78.722-177.637 78.722Z" fill="#D64A43"/></g><defs><linearGradient id="b" x1="346.572" y1="86.95" x2="346.572" y2="882.34" gradientUnits="userSpaceOnUse"><stop stop-color="#DC5E88"/><stop offset="1" stop-color="#F6BB96"/></linearGradient><linearGradient id="e" x1="-490.977" y1="683.525" x2="547.362" y2="683.525" gradientUnits="userSpaceOnUse"><stop stop-color="#4793FF"/><stop offset=".25" stop-color="#046462" stop-opacity="0"/><stop offset=".27" stop-color="#0F6B7B" stop-opacity=".08"/><stop offset=".31" stop-color="#2077A3" stop-opacity=".22"/><stop offset=".34" stop-color="#2E81C4" stop-opacity=".36"/><stop offset=".38" stop-color="#3989DE" stop-opacity=".51"/><stop offset=".42" stop-color="#418FF0" stop-opacity=".66"/><stop offset=".46" stop-color="#4592FB" stop-opacity=".82"/><stop offset=".5" stop-color="#4793FF"/><stop offset=".75" stop-color="#046462" stop-opacity="0"/><stop offset="1" stop-color="#4793FF"/></linearGradient><linearGradient id="f" x1="-82.707" y1="-.608" x2="406.204" y2="530.826" gradientUnits="userSpaceOnUse"><stop stop-color="#4793FF"/><stop offset=".25" stop-color="#046462" stop-opacity="0"/><stop offset=".27" stop-color="#0F6B7B" stop-opacity=".08"/><stop offset=".31" stop-color="#2077A3" stop-opacity=".22"/><stop offset=".34" stop-color="#2E81C4" stop-opacity=".36"/><stop offset=".38" stop-color="#3989DE" stop-opacity=".51"/><stop offset=".42" stop-color="#418FF0" stop-opacity=".66"/><stop offset=".46" stop-color="#4592FB" stop-opacity=".82"/><stop offset=".5" stop-color="#4793FF"/><stop offset=".75" stop-color="#046462" stop-opacity="0"/><stop offset="1" stop-color="#4793FF"/></linearGradient><linearGradient id="g" x1="469.473" y1="505.257" x2="1305.58" y2="505.257" gradientUnits="userSpaceOnUse"><stop stop-color="#4793FF"/><stop offset=".25" stop-color="#046462" stop-opacity="0"/><stop offset=".27" stop-color="#0F6B7B" stop-opacity=".08"/><stop offset=".31" stop-color="#2077A3" stop-opacity=".22"/><stop offset=".34" stop-color="#2E81C4" stop-opacity=".36"/><stop offset=".38" stop-color="#3989DE" stop-opacity=".51"/><stop offset=".42" stop-color="#418FF0" stop-opacity=".66"/><stop offset=".46" stop-color="#4592FB" stop-opacity=".82"/><stop offset=".5" stop-color="#4793FF"/><stop offset=".75" stop-color="#046462" stop-opacity="0"/><stop offset="1" stop-color="#4793FF"/></linearGradient><linearGradient id="h" x1="-6.587" y1="774.204" x2="343.318" y2="774.204" gradientUnits="userSpaceOnUse"><stop stop-color="#62153D"/><stop offset="1" stop-color="#95294D"/></linearGradient><linearGradient id="i" x1="94.83" y1="699.93" x2="149.85" y2="699.93" gradientUnits="userSpaceOnUse"><stop stop-color="#62153D"/><stop offset="1" stop-color="#95294D"/></linearGradient><linearGradient id="j" x1="328.75" y1="161.008" x2="552.392" y2="161.008" gradientUnits="userSpaceOnUse"><stop stop-color="#62153D"/><stop offset="1" stop-color="#95294D"/></linearGradient><linearGradient id="k" x1="-274.073" y1="247.115" x2="16.173" y2="247.115" gradientUnits="userSpaceOnUse"><stop stop-color="#62153D"/><stop offset="1" stop-color="#95294D"/></linearGradient><radialGradient id="c" cx="0" cy="0" r="1" gradientUnits="userSpaceOnUse" gradientTransform="matrix(70.73994 99.96768 -100.00196 70.7642 418.581 204.575)"><stop stop-color="#BC909B"/><stop offset=".04" stop-color="#B6879A" stop-opacity=".96"/><stop offset=".27" stop-color="#955795" stop-opacity=".73"/><stop offset=".48" stop-color="#7C3190" stop-opacity=".51"/><stop offset=".68" stop-color="#6A168D" stop-opacity=".31"/><stop offset=".86" stop-color="#5F068C" stop-opacity=".14"/><stop offset=".99" stop-color="#5B008B" stop-opacity="0"/></radialGradient><radialGradient id="d" cx="0" cy="0" r="1" gradientUnits="userSpaceOnUse" gradientTransform="matrix(29.22566 -1.70408 1.70233 29.19561 500.348 794.221)"><stop stop-color="#fff"/><stop offset=".12" stop-color="#fff" stop-opacity=".88"/><stop offset="1" stop-color="#fff" stop-opacity="0"/></radialGradient><clipPath id="a"><path fill="#fff" transform="translate(-153 -55)" d="M0 0h1786v1020H0z"/></clipPath></defs></svg>