<svg version="1.1" id="Layer_1" xmlns="http://www.w3.org/2000/svg" xmlns:xlink="http://www.w3.org/1999/xlink" x="0" y="0" viewBox="0 0 1920 1080" style="enable-background:new 0 0 1920 1080" xml:space="preserve"><style>.st5{clip-path:url(#SVGID_2_)}.st8,.st9{opacity:.0625;fill:#fff}.st9{opacity:.125}.st10,.st11{opacity:.1875;fill:#fff}.st11{opacity:.25}.st12,.st13{opacity:.3125;fill:#fff}.st13{opacity:.375}.st14,.st15{opacity:.4375;fill:#fff}.st15{opacity:.5}.st16,.st17{opacity:.5625;fill:#fff}.st17{opacity:.625}.st18,.st19{opacity:.6875;fill:#fff}.st19{opacity:.75}.st20,.st21{opacity:.8125;fill:#fff}.st21{opacity:.875}.st22{opacity:.9375}.st22,.st23{fill:#fff}.st26{opacity:.2;clip-path:url(#SVGID_2_)}.st30{opacity:.83}.st30,.st35{clip-path:url(#SVGID_2_);fill:#d64a43}</style><defs><path id="SVGID_1_" d="M0 0h1920v1080H0z"/></defs><clipPath id="SVGID_2_"><use xlink:href="#SVGID_1_" style="overflow:visible"/></clipPath><linearGradient id="SVGID_3_" gradientUnits="userSpaceOnUse" x1="960" y1="27.25" x2="960" y2="1062.376"><stop offset="0" style="stop-color:#dc5e88"/><stop offset="1" style="stop-color:#f6bb96"/></linearGradient><path style="clip-path:url(#SVGID_2_);fill:url(#SVGID_3_)" d="M0-2h1920v1080H0z"/><path style="opacity:.11;clip-path:url(#SVGID_2_);fill:#231f20" d="M0 0h1920v1080H0z"/><radialGradient id="SVGID_4_" cx="1597.603" cy="1220.221" r="196.115" gradientTransform="rotate(-61.393 1392.813 968.74)" gradientUnits="userSpaceOnUse"><stop offset="0" style="stop-color:#bc909b"/><stop offset=".041" style="stop-color:#b6879a;stop-opacity:.9586"/><stop offset=".268" style="stop-color:#955795;stop-opacity:.7303"/><stop offset=".484" style="stop-color:#7c3190;stop-opacity:.5132"/><stop offset=".683" style="stop-color:#6a168d;stop-opacity:.313"/><stop offset=".86" style="stop-color:#5f068c;stop-opacity:.1357"/><stop offset=".995" style="stop-color:#5b008b;stop-opacity:0"/></radialGradient><circle cx="1764.72" cy="1002.72" r="93.42" style="clip-path:url(#SVGID_2_);fill:url(#SVGID_4_)"/><radialGradient id="SVGID_5_" cx="1574.85" cy="-480.41" r="158.61" gradientTransform="rotate(54.697 676.162 -664.32)" gradientUnits="userSpaceOnUse"><stop offset="0" style="stop-color:#bc909b"/><stop offset=".041" style="stop-color:#b6879a;stop-opacity:.9586"/><stop offset=".268" style="stop-color:#955795;stop-opacity:.7303"/><stop offset=".484" style="stop-color:#7c3190;stop-opacity:.5132"/><stop offset=".683" style="stop-color:#6a168d;stop-opacity:.313"/><stop offset=".86" style="stop-color:#5f068c;stop-opacity:.1357"/><stop offset=".995" style="stop-color:#5b008b;stop-opacity:0"/></radialGradient><circle cx="958.62" cy="180.72" r="75.55" style="opacity:.49;clip-path:url(#SVGID_2_);fill:url(#SVGID_5_)"/><radialGradient id="SVGID_6_" cx="1659.47" cy="337.339" r="158.61" gradientTransform="rotate(-3.97 8979.137 20298.042)" gradientUnits="userSpaceOnUse"><stop offset="0" style="stop-color:#bc909b"/><stop offset=".041" style="stop-color:#b6879a;stop-opacity:.9586"/><stop offset=".268" style="stop-color:#955795;stop-opacity:.7303"/><stop offset=".484" style="stop-color:#7c3190;stop-opacity:.5132"/><stop offset=".683" style="stop-color:#6a168d;stop-opacity:.313"/><stop offset=".86" style="stop-color:#5f068c;stop-opacity:.1357"/><stop offset=".995" style="stop-color:#5b008b;stop-opacity:0"/></radialGradient><circle cx="251.17" cy="970.06" r="75.55" style="opacity:.49;clip-path:url(#SVGID_2_);fill:url(#SVGID_6_)"/><g class="st5"><radialGradient id="SVGID_7_" cx="328.235" cy="1011.9" r="28.427" gradientTransform="scale(1 -1) rotate(3.337 21474.391 20083.931)" gradientUnits="userSpaceOnUse"><stop offset="0" style="stop-color:#fff"/><stop offset=".123" style="stop-color:#fff;stop-opacity:.8773"/><stop offset="1" style="stop-color:#fff;stop-opacity:0"/></radialGradient><path d="M1502.45 184.82c-.91-15.67-14.36-27.63-30.04-26.72-15.67.92-27.63 14.36-26.72 30.04.92 15.67 14.36 27.64 30.04 26.72 15.67-.91 27.63-14.36 26.72-30.04z" style="fill:url(#SVGID_7_)"/><path class="st8" d="M1477.48 187.99a3.294 3.294 0 0 1-4.64.37 3.294 3.294 0 0 1-.37-4.64c1.18-1.38 112.31-125.36 112.35-125.32.45.38-106.16 128.21-107.34 129.59z"/><path class="st9" d="M1477.39 187.92a3.17 3.17 0 1 1-4.82-4.12c1.14-1.33 104.92-117.05 105-116.98.46.39-99.04 119.76-100.18 121.1z"/><path class="st10" d="M1477.3 187.84a3.066 3.066 0 0 1-4.31.34 3.057 3.057 0 0 1-.34-4.31c1.1-1.28 97.54-108.74 97.66-108.64.47.41-91.92 111.33-93.01 112.61z"/><path class="st11" d="M1477.21 187.76a2.943 2.943 0 0 1-4.14.33 2.943 2.943 0 0 1-.33-4.14c1.05-1.23 90.15-100.43 90.31-100.29.49.41-84.79 102.87-85.84 104.1z"/><path class="st12" d="M1477.12 187.69a2.818 2.818 0 0 1-3.97.31 2.818 2.818 0 0 1-.31-3.97c1.01-1.18 82.76-92.12 82.96-91.95.49.42-77.67 94.42-78.68 95.61z"/><path class="st13" d="M1477.03 187.61a2.706 2.706 0 0 1-3.81.3 2.706 2.706 0 0 1-.3-3.81c.97-1.13 75.38-83.81 75.62-83.6.51.43-70.54 85.98-71.51 87.11z"/><path class="st14" d="M1476.94 187.53a2.592 2.592 0 0 1-3.64.29 2.592 2.592 0 0 1-.29-3.64c.93-1.08 67.99-75.5 68.27-75.26.52.45-63.41 77.53-64.34 78.61z"/><path class="st15" d="M1476.85 187.46a2.47 2.47 0 0 1-3.75-3.21c.88-1.03 60.6-67.19 60.92-66.92.54.47-56.28 69.09-57.17 70.13z"/><path class="st16" d="M1476.76 187.38c-.84.99-2.32 1.1-3.31.26-.99-.84-1.1-2.32-.26-3.31.84-.99 53.22-58.88 53.57-58.57.56.47-49.16 60.64-50 61.62z"/><path class="st17" d="M1476.67 187.31c-.8.94-2.21 1.05-3.14.25-.94-.8-1.05-2.21-.25-3.14.8-.94 45.83-50.57 46.23-50.23.56.47-42.04 52.18-42.84 53.12z"/><path class="st18" d="M1476.58 187.23c-.76.89-2.09.99-2.98.23a2.11 2.11 0 0 1-.23-2.98c.76-.89 38.44-42.26 38.88-41.89.58.5-34.91 43.75-35.67 44.64z"/><path class="st19" d="M1476.49 187.15c-.72.84-1.97.94-2.81.22-.84-.71-.94-1.97-.22-2.81.71-.84 31.05-33.95 31.53-33.54.59.5-27.78 35.29-28.5 36.13z"/><path class="st20" d="M1476.4 187.08c-.67.79-1.86.88-2.65.21-.79-.67-.88-1.86-.21-2.65.67-.79 23.67-25.64 24.19-25.2.61.51-20.65 26.85-21.33 27.64z"/><path class="st21" d="M1476.31 187c-.63.74-1.74.83-2.48.2a1.75 1.75 0 0 1-.19-2.48c.63-.74 16.28-17.33 16.84-16.86.61.52-13.54 18.4-14.17 19.14z"/><path class="st22" d="M1476.22 186.92c-.59.69-1.63.77-2.31.18-.69-.59-.77-1.62-.18-2.31.59-.69 8.89-9.02 9.49-8.51.63.53-6.41 9.95-7 10.64z"/><path class="st23" d="M1476.13 186.85c-.55.64-1.51.71-2.15.17-.64-.55-.71-1.51-.17-2.15.54-.64 1.51-.71 2.15-.17.64.55.72 1.51.17 2.15z"/></g><g class="st5"><radialGradient id="SVGID_8_" cx="-29.823" cy="270.406" r="38.066" gradientTransform="scale(1 -1) rotate(3.337 21474.391 20083.931)" gradientUnits="userSpaceOnUse"><stop offset="0" style="stop-color:#fff"/><stop offset=".123" style="stop-color:#fff;stop-opacity:.8773"/><stop offset="1" style="stop-color:#fff;stop-opacity:0"/></radialGradient><path d="M1197.78 945.34c-1.22-20.98-19.23-37-40.22-35.78-20.98 1.23-37 19.23-35.78 40.22 1.23 20.99 19.23 37.01 40.22 35.78 20.98-1.23 37-19.24 35.78-40.22z" style="fill:url(#SVGID_8_)"/><path class="st8" d="M1164.34 949.58a4.405 4.405 0 1 1-6.7-5.72c1.58-1.85 150.39-167.86 150.44-167.81.6.5-142.16 171.68-143.74 173.53z"/><path class="st9" d="M1164.22 949.48a4.255 4.255 0 0 1-5.99.47c-1.78-1.52-2-4.2-.47-5.99 1.52-1.78 140.5-156.73 140.61-156.64.61.52-132.63 160.37-134.15 162.16z"/><path class="st10" d="M1164.1 949.37a4.09 4.09 0 0 1-5.77.45 4.1 4.1 0 0 1-.46-5.77c1.47-1.72 130.61-145.61 130.77-145.47.64.55-123.07 149.08-124.54 150.79z"/><path class="st11" d="M1163.98 949.27a3.93 3.93 0 1 1-5.98-5.1c1.41-1.65 120.72-134.48 120.93-134.3.65.55-113.54 137.75-114.95 139.4z"/><path class="st12" d="M1163.86 949.17a3.781 3.781 0 0 1-5.32.42 3.781 3.781 0 0 1-.42-5.32c1.35-1.58 110.82-123.35 111.09-123.12.67.56-104 126.43-105.35 128.02z"/><path class="st13" d="M1163.74 949.07a3.614 3.614 0 0 1-5.1.4 3.614 3.614 0 0 1-.4-5.1c1.3-1.52 100.93-112.23 101.25-111.95.69.58-94.45 115.13-95.75 116.65z"/><path class="st14" d="M1163.62 948.96a3.465 3.465 0 0 1-4.88.38 3.456 3.456 0 0 1-.38-4.88c1.24-1.45 91.04-101.1 91.42-100.78.7.61-84.92 103.83-86.16 105.28z"/><path class="st15" d="M1163.5 948.86a3.297 3.297 0 0 1-4.65.37 3.297 3.297 0 0 1-.37-4.65c1.18-1.39 81.15-89.97 81.58-89.61.72.61-75.38 92.5-76.56 93.89z"/><path class="st16" d="M1163.38 948.76a3.14 3.14 0 0 1-4.43.35 3.14 3.14 0 0 1-.35-4.43c1.13-1.32 71.26-78.85 71.74-78.43.73.62-65.83 81.19-66.96 82.51z"/><path class="st17" d="M1163.26 948.66a2.99 2.99 0 0 1-4.21.33 2.99 2.99 0 0 1-.33-4.21c1.07-1.25 61.37-67.72 61.9-67.26.75.64-56.29 69.88-57.36 71.14z"/><path class="st18" d="M1163.14 948.55a2.824 2.824 0 0 1-3.99.31 2.824 2.824 0 0 1-.31-3.99c1.01-1.19 51.48-56.59 52.06-56.09.77.67-46.75 58.59-47.76 59.77z"/><path class="st19" d="M1163.02 948.45a2.685 2.685 0 0 1-3.77.3 2.685 2.685 0 0 1-.3-3.77c.96-1.12 41.58-45.46 42.23-44.92.79.68-37.2 47.27-38.16 48.39z"/><path class="st20" d="M1162.9 948.35a2.516 2.516 0 0 1-3.54.28 2.516 2.516 0 0 1-.28-3.54c.9-1.05 31.69-34.34 32.39-33.74.8.68-27.67 35.94-28.57 37z"/><path class="st21" d="M1162.78 948.25a2.35 2.35 0 0 1-3.32.26 2.349 2.349 0 0 1-.26-3.32c.84-.99 21.8-23.21 22.55-22.57.82.7-18.13 24.64-18.97 25.63z"/><path class="st22" d="M1162.66 948.15a2.2 2.2 0 0 1-3.1.24 2.2 2.2 0 0 1-.24-3.1c.79-.92 11.91-12.08 12.71-11.4.84.72-8.58 13.33-9.37 14.26z"/><path class="st23" d="M1162.54 948.04c-.73.86-2.02.96-2.88.23-.86-.73-.96-2.02-.22-2.88.73-.86 2.02-.96 2.87-.23.86.74.96 2.03.23 2.88z"/></g><g class="st5"><radialGradient id="SVGID_9_" cx="-923.026" cy="617.002" r="38.066" gradientTransform="scale(1 -1) rotate(3.337 21474.391 20083.931)" gradientUnits="userSpaceOnUse"><stop offset="0" style="stop-color:#fff"/><stop offset=".123" style="stop-color:#fff;stop-opacity:.8773"/><stop offset="1" style="stop-color:#fff;stop-opacity:0"/></radialGradient><path d="M285.92 651.31c-1.22-20.98-19.23-37-40.22-35.78-20.98 1.23-37 19.23-35.78 40.22 1.23 20.99 19.23 37.01 40.22 35.78 20.99-1.22 37.01-19.23 35.78-40.22z" style="fill:url(#SVGID_9_)"/><path class="st8" d="M252.48 655.56a4.405 4.405 0 1 1-6.7-5.72c1.58-1.85 150.39-167.86 150.44-167.81.6.5-142.16 171.67-143.74 173.53z"/><path class="st9" d="M252.36 655.45a4.255 4.255 0 0 1-5.99.47c-1.78-1.52-2-4.2-.47-5.99 1.52-1.78 140.5-156.73 140.61-156.64.61.53-132.62 160.38-134.15 162.16z"/><path class="st10" d="M252.24 655.35a4.09 4.09 0 0 1-5.77.45 4.1 4.1 0 0 1-.46-5.77c1.47-1.72 130.61-145.61 130.77-145.47.64.55-123.07 149.07-124.54 150.79z"/><path class="st11" d="M252.12 655.25a3.93 3.93 0 1 1-5.98-5.1c1.41-1.65 120.72-134.48 120.93-134.3.65.55-113.54 137.75-114.95 139.4z"/><path class="st12" d="M252 655.15a3.781 3.781 0 0 1-5.32.42 3.781 3.781 0 0 1-.42-5.32c1.35-1.58 110.82-123.35 111.09-123.12.67.56-103.99 126.43-105.35 128.02z"/><path class="st13" d="M251.88 655.04a3.614 3.614 0 0 1-5.1.4 3.614 3.614 0 0 1-.4-5.1c1.3-1.52 100.93-112.23 101.25-111.95.69.59-94.45 115.13-95.75 116.65z"/><path class="st14" d="M251.76 654.94a3.465 3.465 0 0 1-4.88.38 3.456 3.456 0 0 1-.38-4.88c1.24-1.45 91.04-101.1 91.42-100.78.7.61-84.92 103.83-86.16 105.28z"/><path class="st15" d="M251.64 654.84a3.297 3.297 0 0 1-4.65.37 3.297 3.297 0 0 1-.37-4.65c1.18-1.39 81.15-89.97 81.58-89.61.72.61-75.37 92.5-76.56 93.89z"/><path class="st16" d="M251.52 654.74a3.14 3.14 0 0 1-4.43.35 3.14 3.14 0 0 1-.35-4.43c1.13-1.32 71.26-78.85 71.74-78.43.74.62-65.83 81.19-66.96 82.51z"/><path class="st17" d="M251.4 654.63a2.99 2.99 0 0 1-4.21.33 2.99 2.99 0 0 1-.33-4.21c1.07-1.25 61.37-67.72 61.9-67.26.76.65-56.29 69.89-57.36 71.14z"/><path class="st18" d="M251.28 654.53a2.824 2.824 0 0 1-3.99.31 2.824 2.824 0 0 1-.31-3.99c1.01-1.19 51.48-56.59 52.06-56.09.78.67-46.74 58.58-47.76 59.77z"/><path class="st19" d="M251.16 654.43a2.685 2.685 0 0 1-3.77.3 2.685 2.685 0 0 1-.3-3.77c.96-1.12 41.58-45.46 42.23-44.92.8.68-37.2 47.27-38.16 48.39z"/><path class="st20" d="M251.04 654.33a2.516 2.516 0 0 1-3.54.28 2.516 2.516 0 0 1-.28-3.54c.9-1.05 31.69-34.34 32.39-33.74.8.68-27.67 35.94-28.57 37z"/><path class="st21" d="M250.92 654.23a2.35 2.35 0 0 1-3.32.26 2.349 2.349 0 0 1-.26-3.32c.84-.99 21.8-23.21 22.55-22.57.82.7-18.12 24.64-18.97 25.63z"/><path class="st22" d="M250.8 654.12a2.2 2.2 0 0 1-3.1.24 2.2 2.2 0 0 1-.24-3.1c.79-.92 11.91-12.08 12.71-11.4.84.73-8.58 13.34-9.37 14.26z"/><path class="st23" d="M250.68 654.02c-.73.86-2.02.96-2.88.23-.86-.73-.96-2.02-.22-2.88.73-.86 2.02-.96 2.87-.23.86.74.96 2.02.23 2.88z"/></g><g class="st26"><linearGradient id="SVGID_10_" gradientUnits="userSpaceOnUse" x1="-128.871" y1="803.641" x2="1221.04" y2="803.641"><stop offset="0" style="stop-color:#4793ff"/><stop offset=".252" style="stop-color:#046462;stop-opacity:0"/><stop offset=".271" style="stop-color:#0f6b7b;stop-opacity:.0754"/><stop offset=".306" style="stop-color:#2077a3;stop-opacity:.2168"/><stop offset=".342" style="stop-color:#2e81c4;stop-opacity:.3624"/><stop offset=".379" style="stop-color:#3989de;stop-opacity:.511"/><stop offset=".417" style="stop-color:#418ff0;stop-opacity:.6637"/><stop offset=".456" style="stop-color:#4592fb;stop-opacity:.8231"/><stop offset=".5" style="stop-color:#4793ff"/><stop offset=".753" style="stop-color:#046462;stop-opacity:0"/><stop offset="1" style="stop-color:#4793ff"/></linearGradient><path d="M-36.84 526.36C-99.3 874.32 290.3 666.14 456.85 636.4c86.25-14.87 187.36-32.71 220.08 65.43 29.74 92.2-35.69 187.36 29.74 267.66 47.19 57.13 124.03 66.6 169.43 120.56 50.09 59.55 111.36 75.66 187.44 82.48 66.9 5.99 136.77-5.4 154.94-81.26 14.84-61.96-37.21-99.89-93-104-102.55-7.54-252.65 37.27-299.86-86.19-38.66-101.11 65.43-187.36 26.77-279.55-32.71-77.32-157.62-110.04-234.95-115.99-184.39-11.9-324.17 110.04-502.61 127.88-107.06 8.93-124.91-53.53-136.8-139.77-17.84-113.01-133.83-41.64-101.12 8.92" style="fill:url(#SVGID_10_)"/></g><g class="st26"><linearGradient id="SVGID_11_" gradientUnits="userSpaceOnUse" x1="401.911" y1="-86.702" x2="1038.237" y2="604.259"><stop offset="0" style="stop-color:#4793ff"/><stop offset=".252" style="stop-color:#046462;stop-opacity:0"/><stop offset=".271" style="stop-color:#0f6b7b;stop-opacity:.0754"/><stop offset=".306" style="stop-color:#2077a3;stop-opacity:.2168"/><stop offset=".342" style="stop-color:#2e81c4;stop-opacity:.3624"/><stop offset=".379" style="stop-color:#3989de;stop-opacity:.511"/><stop offset=".417" style="stop-color:#418ff0;stop-opacity:.6637"/><stop offset=".456" style="stop-color:#4592fb;stop-opacity:.8231"/><stop offset=".5" style="stop-color:#4793ff"/><stop offset=".753" style="stop-color:#046462;stop-opacity:0"/><stop offset="1" style="stop-color:#4793ff"/></linearGradient><path d="M280.75 251.57c-41.78 99.63 102.84 141.41 170.33 125.34 93.2-19.28 257.1-115.7 340.66-25.71 35.35 38.57 32.14 93.2 80.34 125.34 48.21 32.14 109.27 25.71 144.62-16.07 102.84-118.91-83.56-151.05-157.48-183.19-106.05-48.21-205.68-144.62-93.2-241.03C801.39 7.32 878.52-21.6 884.94-76.24c3.21-64.27-89.99-77.13-138.19-83.56-109.27-9.63-244.25 22.5-247.46 151.05-3.21 96.41 109.27 221.75-32.14 269.96-86.77 25.71-112.48-67.49-176.76-61.06 0 32.14-19.28 131.77 25.71 131.77" style="fill:url(#SVGID_11_)"/></g><g class="st26"><linearGradient id="SVGID_12_" gradientUnits="userSpaceOnUse" x1="1119.781" y1="571.642" x2="2206.776" y2="571.642"><stop offset="0" style="stop-color:#4793ff"/><stop offset=".252" style="stop-color:#046462;stop-opacity:0"/><stop offset=".271" style="stop-color:#0f6b7b;stop-opacity:.0754"/><stop offset=".306" style="stop-color:#2077a3;stop-opacity:.2168"/><stop offset=".342" style="stop-color:#2e81c4;stop-opacity:.3624"/><stop offset=".379" style="stop-color:#3989de;stop-opacity:.511"/><stop offset=".417" style="stop-color:#418ff0;stop-opacity:.6637"/><stop offset=".456" style="stop-color:#4592fb;stop-opacity:.8231"/><stop offset=".5" style="stop-color:#4793ff"/><stop offset=".753" style="stop-color:#046462;stop-opacity:0"/><stop offset="1" style="stop-color:#4793ff"/></linearGradient><path d="M1426.64 215.46c-72.75 45.95-409.7 329.29-275.68 413.53 137.84 84.24 363.75-103.38 490.11 19.14 84.24 84.24-3.83 222.08 141.67 287.17 111.04 53.61 302.49-42.12 379.07-130.19 103.38-111.04 15.31-283.34-130.19-199.11-91.89 49.78-237.39 156.99-237.39-22.97 0-76.58 80.41-306.32-61.26-264.2-59.45 17.49-106.4 59.98-150.55 101.49-43.7 41.08-94.28 77.78-135.3 120.88-34.69 36.45-64 62.58-119.57 55.77-46.57-5.71-85.11-37-84.26-86.69 1.41-82.35 89.67-110.84 136.25-160.04 33.23-35.1 98.38-122.88 31.79-157.76" style="fill:url(#SVGID_12_)"/></g><path class="st30" d="m1256.26 666.72-.06 19.19s-204.07 63.33-326.59 122.22c-122.5 58.9-217.31 141.69-217.31 141.69l30.68-8.44c-77.7 46.25-233 105.88-233 105.88l-.02-.11c-.04-.25-.21-1.05-.57-2.23-2.36-8.02-12.96-34.36-52.01-43.47-44.94-10.5-147.41 22.83-153.32 24.79 3.62-1.37 42.92-16.16 94.79-41.81 13-6.42 26.81-13.53 41.03-21.29 54.14-29.52 167.48-119.8 167.48-119.8l-45.99 10.29 150.97-113.34 21.04-9.05s-59.36 52.47-54.16 57.65c5.18 5.18 179.35 24.89 310.81-15.36 131.45-40.23 266.23-106.81 266.23-106.81z"/><linearGradient id="SVGID_13_" gradientUnits="userSpaceOnUse" x1="500.87" y1="921.647" x2="955.765" y2="921.647"><stop offset="0" style="stop-color:#62153d"/><stop offset="1" style="stop-color:#95294d"/></linearGradient><path d="m955.77 796.04-199.34 56.43 35.18 1.48-151.22 54.5 18.29-17.75-133.61 73.37 101.34-38.78 85.9 24.53-61.35 23.16-100.78 11.7 72.02 1.63-58.76 29.11-62.57-4.3 9.12 36.14s197.27-79.08 232.99-105.88l-30.67 8.44c-.01 0 121.3-104.61 243.46-153.78z" style="clip-path:url(#SVGID_2_);fill:url(#SVGID_13_)"/><linearGradient id="SVGID_14_" gradientUnits="userSpaceOnUse" x1="632.723" y1="824.997" x2="704.252" y2="824.997"><stop offset="0" style="stop-color:#62153d"/><stop offset="1" style="stop-color:#95294d"/></linearGradient><path style="clip-path:url(#SVGID_2_);fill:url(#SVGID_14_)" d="m632.72 839.02 71.53-28.05-44.17 8.23z"/><linearGradient id="SVGID_15_" gradientUnits="userSpaceOnUse" x1="936.824" y1="123.627" x2="1227.571" y2="123.627"><stop offset="0" style="stop-color:#62153d"/><stop offset="1" style="stop-color:#95294d"/></linearGradient><path d="M1167.07 66.8S989.64 192.68 936.83 218.09c0 0 52.18-31.15 87.67-89.55l-5.79 18.33 94.06-83.94 5.25 5.68 109.56-39.44-60.51 37.63z" style="opacity:.83;clip-path:url(#SVGID_2_);fill:url(#SVGID_15_)"/><path class="st30" d="m1112.76 62.92-23.42 32.85 27.91-15.27-104.63 75.55 6.08-9.18z"/><linearGradient id="SVGID_16_" gradientUnits="userSpaceOnUse" x1="1336.526" y1="787.6" x2="1732.177" y2="787.6"><stop offset="0" style="stop-color:#62153d"/><stop offset="1" style="stop-color:#95294d"/></linearGradient><path d="m1440.3 879.17 219.67-147.72-49.85 19.27 122.06-85.15s-154.16 94.98-189.03 106.54c-34.87 11.55-45.63 5.19-45.63 5.19l-160.99 132.32 126.52-59.47-22.75 29.02z" style="opacity:.83;clip-path:url(#SVGID_2_);fill:url(#SVGID_16_)"/><path class="st35" d="m1732.18 665.57 39.18-37.51 49.64-26.64zM1497.51 777.3l80.84-57.34-49.05 24.83zM881.19 535.73l80.83-57.34-49.05 24.83z"/><linearGradient id="SVGID_17_" gradientUnits="userSpaceOnUse" x1="122.103" y1="777.303" x2="400.084" y2="777.303"><stop offset="0" style="stop-color:#62153d"/><stop offset="1" style="stop-color:#95294d"/></linearGradient><path d="M400.08 650.31 235.79 772.34l20.1-5.73-133.73 95.7-.06 41.98s197.97-187.85 204.82-194.7c6.85-6.84 73.16-59.28 73.16-59.28z" style="opacity:.83;clip-path:url(#SVGID_2_);fill:url(#SVGID_17_)"/><linearGradient id="SVGID_18_" gradientUnits="userSpaceOnUse" x1="153.121" y1="235.692" x2="530.462" y2="235.692"><stop offset="0" style="stop-color:#62153d"/><stop offset="1" style="stop-color:#95294d"/></linearGradient><path d="M153.12 391.31s111.77-123.99 217.49-199.69c105.72-75.7 159.85-111.55 159.85-111.55S396.31 186.45 384.4 206.79c-11.91 20.34 29.79 19.19 29.79 19.19l-60.12 54.41 18.53-1.32-136.16 90.48s54.65-46.05 63.35-60.91c8.7-14.85-18.81-7.99-39.83-2.5s-106.84 85.17-106.84 85.17z" style="clip-path:url(#SVGID_2_);fill:url(#SVGID_18_)"/><path class="st30" d="m341.79 235.69 88.8-86.68C328.16 209.03 223.2 318.9 223.2 318.9l60.3-49.79-3.27 16.49 34.74-24.19-4.73 16.69 80.7-40.71-48.39 6.96 11.86-12.79-12.62 4.13z"/><path class="st35" d="m304.55 295.27 43.32-12.45-32.55 18.62zm-74.32 80.36-45.81 35.06s7.09-17.33 14.6-24.85 31.21-10.21 31.21-10.21zM584.25 45.91l-52.63 33.53s9.25-18.02 18.05-25.42c8.8-7.41 34.58-8.11 34.58-8.11z"/><path class="st30" d="M1160.79 423.26s257.95-169.61 482.51-255.66 338.18-124.89 338.18-124.89-289.77 127.65-320.6 158.47c-30.83 30.83 44.34 48.27 44.34 48.27l-133.01 69.26 33.77 6.3-285.94 98.26s119.32-56.86 141.83-79.37c22.51-22.51-29.92-23.09-70.1-23.09-40.19-.01-230.98 102.45-230.98 102.45z"/><path style="clip-path:url(#SVGID_2_);fill:none" d="M0 0h1920v1080H0z"/></svg>