<svg width="1366" height="82" fill="none" xmlns="http://www.w3.org/2000/svg"><defs><clipPath clipPathUnits="userSpaceOnUse" id="a"><rect style="fill:#00f;fill-rule:evenodd;stroke-width:1.1432" width="1612.132" height="115.383" x="-165.128" y="-32.895" rx="1.221"/></clipPath></defs><path d="M1337.53 55.675c-7.66 0-15.06.614-22.04 1.78-7.06-15.597-32.52-27.128-62.86-27.128-16.82 0-32.17 3.56-43.68 9.389-15.39-16.62-46.57-27.963-82.57-27.963-40.7 0-75.28 14.525-87.75 34.722-16.92-9.957-40.921-16.164-67.538-16.164-37.065 0-69.058 12.052-83.901 29.444a101.342 101.342 0 0 0-8.836-.378c-10.229 0-19.805 1.497-28.119 4.112-2.481-18.558-30.47-33.178-64.617-33.178-4.897 0-9.685.3-14.278.882C761.896 13.17 731.84 0 696.255 0c-37.216 0-68.36 14.4-76.261 33.666-11.121-4.08-24.463-6.459-38.805-6.459-22.504 0-42.527 5.845-55.411 14.935-25.268.882-47.359 8.224-60.961 19.062-12.319-3.544-26.313-5.545-41.156-5.545-34.126 0-63.79 10.587-78.851 26.168a45.736 45.736 0 0 0-4.201-.19c-1.284 0-2.524.048-3.765.142-4.091-12.745-24.18-22.418-48.381-22.418-10.665 0-20.502 1.89-28.555 5.073-8.705-14.903-33.973-25.695-63.79-25.695-32.711 0-59.96 12.982-65.836 30.138-14.038-6.822-32.429-10.965-52.582-10.965-11.187 0-21.83 1.276-31.47 3.576C39.83 50.46 21.461 42.426-.412 42.063v51.233a26.634 26.634 0 0 0-1.24 4.82A21.769 21.769 0 0 0-2 102.055c0 2.993.544 5.923 1.567 8.743V206H1366V58.684c-8.79-1.954-18.41-3.01-28.47-3.01z" fill="#f0526d" clip-path="url(#a)"/></svg>