<?xml version="1.0" encoding="UTF-8" standalone="no"?>
<svg
   width="1366"
   height="82"
   viewBox="0 0 1366 82"
   fill="none"
   version="1.1"
   id="svg4"
   sodipodi:docname="bg.svg"
   inkscape:version="1.1 (c4e8f9ed74, 2021-05-24)"
   xmlns:inkscape="http://www.inkscape.org/namespaces/inkscape"
   xmlns:sodipodi="http://sodipodi.sourceforge.net/DTD/sodipodi-0.dtd"
   xmlns="http://www.w3.org/2000/svg"
   xmlns:svg="http://www.w3.org/2000/svg">
  <defs
     id="defs8">
    <clipPath
       clipPathUnits="userSpaceOnUse"
       id="clipPath114">
      <rect
         style="fill:#0000ff;fill-rule:evenodd;stroke-width:1.1432"
         id="rect116"
         width="1612.1324"
         height="115.38282"
         x="-165.12833"
         y="-32.894638"
         rx="1.2206955" />
    </clipPath>
  </defs>
  <sodipodi:namedview
     id="namedview6"
     pagecolor="#ffffff"
     bordercolor="#666666"
     borderopacity="1.0"
     inkscape:pageshadow="2"
     inkscape:pageopacity="0.0"
     inkscape:pagecheckerboard="0"
     showgrid="false"
     height="205px"
     inkscape:zoom="0.43301611"
     inkscape:cx="630.46154"
     inkscape:cy="-106.23161"
     inkscape:window-width="1920"
     inkscape:window-height="1063"
     inkscape:window-x="1920"
     inkscape:window-y="17"
     inkscape:window-maximized="1"
     inkscape:current-layer="svg4" />
  <path
     d="m 1337.53,55.6748 c -7.66,0 -15.06,0.6144 -22.04,1.7802 -7.06,-15.5965 -32.52,-27.1284 -62.86,-27.1284 -16.82,0 -32.17,3.5604 -43.68,9.3894 -15.39,-16.6206 -46.57,-27.9635 -82.57,-27.9635 -40.7,0 -75.28,14.5253 -87.75,34.722 -16.92,-9.9566 -40.921,-16.1637 -67.538,-16.1637 -37.065,0 -69.058,12.0519 -83.901,29.4443 -2.873,-0.252 -5.832,-0.3781 -8.836,-0.3781 -10.229,0 -19.805,1.4967 -28.119,4.1118 -2.481,-18.5582 -30.47,-33.178 -64.617,-33.178 -4.897,0 -9.685,0.2993 -14.278,0.8822 C 761.896,13.1704 731.84,0 696.255,0 c -37.216,0 -68.36,14.3992 -76.261,33.6664 -11.121,-4.0803 -24.463,-6.4591 -38.805,-6.4591 -22.504,0 -42.527,5.8447 -55.411,14.9348 -25.268,0.8822 -47.359,8.2236 -60.961,19.0624 -12.319,-3.5447 -26.313,-5.5454 -41.156,-5.5454 -34.126,0 -63.79,10.5867 -78.851,26.1675 -1.371,-0.1261 -2.764,-0.1891 -4.201,-0.1891 -1.284,0 -2.524,0.0473 -3.765,0.1418 -4.091,-12.745 -24.18,-22.418 -48.381,-22.418 -10.665,0 -20.502,1.8905 -28.555,5.0728 -8.705,-14.9034 -33.973,-25.6949 -63.79,-25.6949 -32.711,0 -59.96,12.9814 -65.836,30.1375 C 116.244,62.0552 97.8534,57.9119 77.6999,57.9119 66.5132,57.9119 55.8706,59.188 46.2291,61.4881 39.8305,50.4602 21.4616,42.4257 -0.411226,42.0633 V 93.2955 C -0.97709,94.8709 -1.39061,96.4778 -1.65178,98.1162 -1.89118,99.4238 -2,100.731 -2,102.055 c 0,2.993 0.5441,5.923 1.56701,8.743 V 206 H 1366 V 138.021 58.6838 c -8.79,-1.9535 -18.41,-3.009 -28.47,-3.009 z"
     fill="#f0526d"
     id="path2"
     clip-path="url(#clipPath114)" />
</svg>
