<svg width="360" height="618" fill="none" xmlns="http://www.w3.org/2000/svg"><g clip-path="url(#a)"><path d="M386.749 0H-13.027v630.852h399.776V0Z" fill="url(#b)"/><path opacity=".05" d="M-519.323 316.118a47.881 47.881 0 0 1 21.161 4.844c1.871-21.862 22.929-39.094 48.631-39.094 3.608.001 7.207.349 10.748 1.038 7.125-21.225 29.733-36.738 56.523-36.738 28.013 0 51.461 16.952 57.401 39.672a58.667 58.667 0 0 1 29.211-7.611c16.923 0 32.009 6.884 41.707 17.599 18.996 1.037 35.639 9.686 45.886 22.459a75.367 75.367 0 0 1 30.97-6.538c25.688 0 48.006 12.478 59.341 30.821a23.798 23.798 0 0 1 3.167-.214 22.99 22.99 0 0 1 2.825.176c3.084-15.011 18.208-26.41 36.416-26.41a40.74 40.74 0 0 1 21.496 5.967c6.562-17.564 25.557-30.268 48.006-30.268 24.625 0 45.123 15.288 49.561 35.513 10.562-8.043 24.407-12.921 39.573-12.921a67.717 67.717 0 0 1 23.699 4.217c4.932-13.295 19.313-22.92 36.291-22.92 15.887 0 29.474 8.41 35.228 20.367 7.37-9.902 20.218-16.475 34.848-16.475 17.666 0 32.745 9.576 38.726 23.062a38.563 38.563 0 0 1 18.454-4.602c13.611 0 25.384 6.785 31.083 16.658 7.712-15.222 25.274-25.888 45.71-25.888 12.547 0 24.01 4.013 32.779 10.642 3.941-6.881 12.129-11.614 21.596-11.614 8.075 0 15.196 3.46 19.589 8.722 4.525-12.382 17.887-21.353 33.667-21.353 18.084 0 32.979 11.763 35.062 26.964a41.9 41.9 0 0 1 4.911-1.948v304.169H-523.751V316.315a50.55 50.55 0 0 1 4.428-.197Z" fill="#000"/><path opacity=".2" d="M425.842 454.281a51.948 51.948 0 0 0-14.506 2.076c-4.638-18.066-21.413-31.451-41.358-31.451a43.074 43.074 0 0 0-28.752 10.856c-10.123-19.225-30.651-32.372-54.33-32.372-26.784 0-49.533 16.831-57.742 40.239a61.553 61.553 0 0 0-44.436-18.734c-24.39 0-45.433 13.963-55.2 34.136a38.74 38.74 0 0 0-5.813-.439 38.031 38.031 0 0 0-18.495 4.764c-1.637-21.505-20.031-38.461-42.515-38.461a43.8 43.8 0 0 0-9.397 1.017C47.08 405.03 27.308 389.77 3.886 389.77c-24.487 0-44.974 16.682-50.176 39.028a46.909 46.909 0 0 0-25.547-7.494 46.618 46.618 0 0 0-20.191 4.501 46.707 46.707 0 0 0-16.27 12.797 53.12 53.12 0 0 0-22.549 6.503 53.215 53.215 0 0 0-17.562 15.59 59.755 59.755 0 0 0-27.077-6.431c-22.449 0-41.969 12.278-51.875 30.323a18.24 18.24 0 0 0-5.235-.041c-2.694-14.766-15.915-25.978-31.83-25.978a32.765 32.765 0 0 0-18.795 5.881c-5.726-17.277-22.352-29.777-41.973-29.777-21.527 0-39.448 15.042-43.326 34.942a53.015 53.015 0 0 0-34.593-12.711 53.408 53.408 0 0 0-20.722 4.152c-4.21-12.776-16.301-22.093-30.693-22.522v59.381a50.612 50.612 0 0 0-1.033 10.133c0 3.403.347 6.797 1.037 10.13v110.361h899.088v-170.77a51.72 51.72 0 0 0-18.722-3.487Z" fill="#fff"/><path d="M430.895 560.003c-1.216-6.573-7.778-11.579-15.697-11.579a18.18 18.18 0 0 0-4.625.592c-4.365-8.241-13.97-13.967-25.119-13.967-11.925 0-22.103 6.553-25.954 15.731a17.364 17.364 0 0 0-4.49-.581c-8.403 0-15.214 5.902-15.214 13.184-.001.451.025.902.076 1.35a12.088 12.088 0 0 0-1.803-.135c-5.84 0-10.575 4.103-10.575 9.164 0 4.695 4.076 8.566 9.325 9.102l-.045.063H441.94c2.507-2.422 4.03-5.646 4.03-9.165.017-7.372-6.659-13.396-15.075-13.759Zm-259.38-96.564c-1.302-7.044-8.344-12.427-16.84-12.427a19.51 19.51 0 0 0-4.963.636c-4.684-8.839-14.989-14.983-26.939-14.983-12.8 0-23.703 7.03-27.851 16.876a18.587 18.587 0 0 0-4.797-.623c-9.018 0-16.326 6.335-16.326 14.146 0 .485.028.969.086 1.45a13.09 13.09 0 0 0-1.937-.145c-6.268 0-11.345 4.404-11.345 9.835 0 5.034 4.369 9.185 10.015 9.763l-.048.069h112.822c2.691-2.615 4.324-6.057 4.324-9.832-.007-7.915-7.18-14.374-16.201-14.765Zm71.971-118.454c-.916-4.944-5.872-8.718-11.822-8.718a13.664 13.664 0 0 0-3.485.446c-3.285-6.206-10.52-10.517-18.913-10.517-8.979 0-16.636 4.933-19.548 11.842a13.236 13.236 0 0 0-3.367-.436c-6.327 0-11.456 4.446-11.456 9.929-.001.34.018.68.059 1.017a9.391 9.391 0 0 0-1.361-.1c-4.396 0-7.964 3.09-7.964 6.919 0 3.536 3.07 6.449 7.021 6.85l-.031.049h79.183a9.576 9.576 0 0 0 2.221-3.139 9.583 9.583 0 0 0 .812-3.76c0-5.573-5.036-10.098-11.349-10.382Zm203.5 16.073c-1.212-6.573-7.774-11.572-15.687-11.572a18.064 18.064 0 0 0-4.621.595c-4.362-8.237-13.96-13.956-25.101-13.956-11.919 0-22.073 6.546-25.938 15.717a17.33 17.33 0 0 0-4.469-.581c-8.399 0-15.196 5.881-15.196 13.177-.001.451.025.902.076 1.35a11.827 11.827 0 0 0-1.803-.135c-5.837 0-10.568 4.099-10.568 9.157 0 4.691 4.072 8.559 9.325 9.096l-.045.062h105.1c2.5-2.422 4.023-5.639 4.023-9.158-.014-7.369-6.697-13.388-15.096-13.752ZM30.096 497.215c-1.43-7.681-9.122-13.562-18.405-13.562-1.83-.002-3.654.23-5.426.692-5.115-9.663-16.377-16.374-29.45-16.374-13.987 0-25.902 7.68-30.434 18.443a20.335 20.335 0 0 0-5.246-.692c-9.853 0-17.838 6.919-17.838 15.461 0 .528.03 1.056.093 1.581a14.706 14.706 0 0 0-2.117-.156c-6.849 0-12.399 4.813-12.399 10.746 0 5.504 4.776 10.033 10.931 10.669l-.052.076H43.071c2.936-2.854 4.721-6.618 4.721-10.745 0-8.653-7.84-15.71-17.696-16.139Z" fill="#fff"/><path d="M320.704 469.202c.121.301 2.994-1.124 6.98-1.249 2.072-.062 4.027-.097 5.705 1.166 1.209.914 1.962 2.27 2.518 3.266.287.516.691 1.384 1.454 3.086.629 1.384.94 2.076.943 2.076a.038.038 0 0 0 .004.021.037.037 0 0 0 .013.017c.128.076.909-1.093 1.461-1.799a11.954 11.954 0 0 1 2.549-2.422 9.141 9.141 0 0 1 4.393-1.46 10.034 10.034 0 0 1 4.452.813 14.347 14.347 0 0 1 3.799 2.239c.554.419 1.043.92 1.451 1.484.041.062.11.173.134.162.083-.038-.504-1.729-.984-2.643-1.292-2.477-3.944-3.48-5.239-3.968-3.606-1.36-7.329-.854-8.635.097l-1.492 1.1a20.922 20.922 0 0 0-2.655-3.321 9.285 9.285 0 0 0-4.573-2.29c-1.178-.205-2.476-.173-5.467.477a21.42 21.42 0 0 0-5.136 1.993c-.207.124-1.765.934-1.675 1.155ZM139.902 309.216c.169.198 1.976-1.643 4.963-2.767 1.554-.595 3.029-1.139 4.632-.623 1.16.374 2.072 1.204 2.763 1.813.345.315.873.861 1.913 1.954.836.883 1.257 1.322 1.264 1.339a.035.035 0 0 0 .007.015.071.071 0 0 0 .014.01c.117.02.404-1.07.639-1.751a9.523 9.523 0 0 1 1.295-2.508 7.34 7.34 0 0 1 2.946-2.266 8.09 8.09 0 0 1 3.592-.557c1.189.049 2.363.283 3.481.692a5.7 5.7 0 0 1 1.489.743c.048.038.131.104.145.09.013-.013-.836-1.176-1.441-1.729-1.623-1.575-3.899-1.647-5.008-1.647-3.108-.083-5.784 1.283-6.53 2.352a480.16 480.16 0 0 0-.843 1.228 16.56 16.56 0 0 0-2.887-1.819 7.477 7.477 0 0 0-4.069-.53c-.946.156-1.924.523-4.02 1.803a17.452 17.452 0 0 0-3.371 2.847c-.131.142-1.102 1.166-.974 1.311Zm-14.86-12.226c.127.159 1.588-1.228 3.954-2.045 1.23-.422 2.397-.806 3.64-.346.8.346 1.52.854 2.114 1.491.269.256.66.692 1.444 1.582.632.691.946 1.065.953 1.079a.026.026 0 0 0 0 .021c.09.02.345-.827.542-1.353a7.628 7.628 0 0 1 1.081-1.927 5.79 5.79 0 0 1 2.366-1.688 6.329 6.329 0 0 1 2.822-.346c.928.07 1.841.285 2.704.636.41.149.797.358 1.146.62.035.031.097.086.111.076a6.928 6.928 0 0 0-1.081-1.405c-1.233-1.249-3.008-1.356-3.879-1.408-2.417-.149-4.555.848-5.18 1.664-.062.08-.691.938-.691.938a12.876 12.876 0 0 0-2.207-1.502 5.847 5.847 0 0 0-3.167-.526c-.742.097-1.519.346-3.191 1.305a13.452 13.452 0 0 0-2.711 2.148c-.097.097-.867.872-.77.986ZM298.4 484.867c.138.263 2.611-1.311 6.217-1.805 1.875-.256 3.647-.478 5.294.512 1.185.712 2 1.868 2.601 2.719.311.443.746 1.183 1.616 2.664.691 1.193 1.054 1.788 1.057 1.809.004.021 0 .028 0 .031.125.059.722-1.079 1.157-1.775a10.988 10.988 0 0 1 2.072-2.442 8.364 8.364 0 0 1 3.851-1.73 9.173 9.173 0 0 1 4.121.308c1.306.361 2.548.923 3.681 1.668a6.492 6.492 0 0 1 1.461 1.207c.042.052.118.149.138.138.073-.045-.625-1.522-1.146-2.307-1.413-2.128-3.917-2.768-5.143-3.114-3.405-.889-6.738-.072-7.843.92l-1.25 1.146a18.943 18.943 0 0 0-2.729-2.768 8.506 8.506 0 0 0-4.372-1.64c-1.092-.073-2.269.08-4.922.958a19.705 19.705 0 0 0-4.445 2.287c-.183.135-1.519 1.038-1.416 1.214Zm25.499 18.793c.172.346 3.277-1.643 7.798-2.266 2.352-.322 4.576-.595 6.638.64 1.489.896 2.511 2.346 3.26 3.415.391.553.936 1.48 2.028 3.338.88 1.495 1.319 2.242 1.326 2.27a.063.063 0 0 0 .007.022c.004.006.01.012.017.016.152.072.905-1.353 1.447-2.225a13.892 13.892 0 0 1 2.615-3.065 10.432 10.432 0 0 1 4.835-2.19c2.189-.381 3.878.055 5.18.388a16.44 16.44 0 0 1 4.618 2.075 8.164 8.164 0 0 1 1.827 1.512c.055.069.148.187.173.173.093-.052-.781-1.903-1.437-2.892-1.768-2.667-4.911-3.487-6.445-3.889-4.269-1.114-8.451-.09-9.836 1.152l-1.568 1.436a23.467 23.467 0 0 0-3.422-3.46 10.588 10.588 0 0 0-5.482-2.058c-1.381-.09-2.845.1-6.171 1.204a24.58 24.58 0 0 0-5.609 2.889c-.249.162-1.927 1.269-1.799 1.515Z" fill="#4D4D4D"/></g><defs><linearGradient id="b" x1="186.859" y1="0" x2="186.859" y2="630.852" gradientUnits="userSpaceOnUse"><stop stop-color="#F4D51D"/><stop offset=".14" stop-color="#F4CC1E"/><stop offset=".37" stop-color="#F5B523"/><stop offset=".65" stop-color="#F68F29"/><stop offset=".69" stop-color="#F6892A"/><stop offset="1" stop-color="#FF1E4F"/></linearGradient><clipPath id="a"><path fill="#fff" d="M0 0h373v618H0z"/></clipPath></defs></svg>