<svg width="1366" height="715" fill="none" xmlns="http://www.w3.org/2000/svg"><g clip-path="url(#a)"><path d="M1417.45 0H-65.66v790.79h1483.11V0Z" fill="url(#b)"/><path opacity=".05" d="M-185.811 252.904a87.572 87.572 0 0 1 38.675 8.836c3.422-39.884 41.912-71.329 88.932-71.329 6.593-.004 13.171.627 19.643 1.885 13.02-38.731 54.349-67.039 103.318-67.039 51.225 0 94.041 30.94 104.919 72.389a107.317 107.317 0 0 1 53.36-13.88c30.948 0 58.503 12.557 76.232 32.107 34.755 1.9 65.149 17.665 83.874 40.979a138.097 138.097 0 0 1 56.611-11.924c46.956 0 87.751 22.767 108.469 56.24a42.766 42.766 0 0 1 10.949-.078c5.635-27.384 33.282-48.186 66.557-48.186a74.626 74.626 0 0 1 39.294 10.906c11.974-32.015 46.736-55.229 87.765-55.229 45.007 0 82.48 27.903 90.583 64.798 19.309-14.677 44.616-23.577 72.334-23.577a124.127 124.127 0 0 1 43.307 7.69c9.014-24.26 35.295-41.818 66.339-41.818 29.01 0 53.87 15.346 64.36 37.159 13.51-18.085 36.99-30.066 63.71-30.066 32.3 0 59.86 17.473 70.79 42.082a70.592 70.592 0 0 1 33.73-8.395c24.91 0 46.41 12.379 56.83 30.393 14.1-27.811 46.2-47.24 83.55-47.24 22.93 0 43.89 7.328 59.91 19.422 7.21-12.557 22.18-21.194 39.48-21.194 14.76 0 27.81 6.282 35.8 15.915 8.28-22.588 32.69-38.958 61.54-38.958 33.06 0 60.29 21.485 64.09 49.196a76.924 76.924 0 0 1 8.97-3.557v555.003H-193.9v-562.16c2.66-.242 5.364-.37 8.089-.37Z" fill="#000"/><path opacity=".2" d="M1631.44 495.335a120.271 120.271 0 0 0-30.05 3.778c-9.61-33.196-44.31-57.777-85.66-57.777-22.93 0-43.83 7.563-59.53 19.971-20.94-35.316-63.46-59.484-112.5-59.484-55.49 0-102.58 30.919-119.58 73.926-23.04-21.187-55.75-34.413-92.03-34.413-50.51 0-94.09 25.612-114.32 62.707a90.375 90.375 0 0 0-12.03-.811 86.736 86.736 0 0 0-38.313 8.758c-3.386-39.514-41.513-70.654-88.05-70.654a101.5 101.5 0 0 0-19.458 1.864c-12.892-38.361-53.829-66.399-102.329-66.399-50.713 0-93.152 30.642-103.923 71.7a106.355 106.355 0 0 0-52.883-13.753c-30.656 0-57.948 12.444-75.507 31.809-34.427 1.878-64.529 17.494-83.077 40.588a136.75 136.75 0 0 0-56.077-11.81c-46.501 0-86.919 22.553-107.43 55.706a42.135 42.135 0 0 0-10.85-.078c-5.585-27.128-32.962-47.731-65.924-47.731a73.907 73.907 0 0 0-38.923 10.807c-11.86-31.745-46.288-54.703-86.926-54.703-44.587 0-81.704 27.632-89.73 64.179-19.123-14.535-44.195-23.371-71.643-23.371a122.962 122.962 0 0 0-42.894 7.62c-8.723-23.478-33.766-40.588-63.569-41.371V575.5a82.038 82.038 0 0 0-1.708 10.259 83.212 83.212 0 0 0-.426 8.353 81.824 81.824 0 0 0 2.134 18.611v202.718H1670.24V501.738a119.121 119.121 0 0 0-38.8-6.403Z" fill="#fff"/><path d="M134.68 368.221c-3.259-17.586-20.846-30.997-42.111-30.997a48.88 48.88 0 0 0-12.415 1.586c-11.704-22.09-37.466-37.421-67.347-37.421-32.016 0-59.264 17.551-69.63 42.124a46.663 46.663 0 0 0-12.003-1.551c-22.546 0-40.816 15.808-40.816 35.309 0 1.208.069 2.414.206 3.614a32.764 32.764 0 0 0-4.838-.356c-15.652 0-28.372 10.985-28.372 24.545 0 12.571 10.928 22.93 25.014 24.367l-.121.171h282.101c6.723-6.517 10.807-15.118 10.807-24.538.014-19.757-17.922-35.878-40.475-36.853Zm857.022 222.276c-2.981-16.071-19.081-28.351-38.497-28.351-3.84-.018-7.666.46-11.383 1.423-10.672-20.176-34.25-34.192-61.591-34.192-29.249 0-54.171 16.043-63.655 38.511a42.482 42.482 0 0 0-10.963-1.423c-20.633 0-37.316 14.449-37.316 32.278.001 1.103.068 2.206.199 3.301a30.31 30.31 0 0 0-4.433-.327c-14.321 0-25.932 10.045-25.932 22.439 0 11.49 9.96 20.959 22.866 22.275l-.107.157h257.92c6.15-5.962 9.88-13.824 9.88-22.432.02-18.007-16.38-32.769-36.988-33.659ZM761.169 349.439c-2.135-11.603-13.774-20.468-27.79-20.468a32.202 32.202 0 0 0-8.196 1.046c-7.726-14.57-24.73-24.687-44.473-24.687-21.123 0-39.13 11.582-45.96 27.803a30.991 30.991 0 0 0-7.919-1.024c-14.883 0-26.943 10.436-26.943 23.306.001.797.049 1.593.143 2.384a22.429 22.429 0 0 0-3.202-.235c-10.337 0-18.725 7.257-18.725 16.2 0 8.295 7.214 15.139 16.512 16.085l-.078.114h186.224a22.513 22.513 0 0 0 7.115-16.199c.021-13.063-11.824-23.677-26.708-24.325Zm653.051 144.075c-3.49-18.861-22.39-33.275-45.18-33.275a52.67 52.67 0 0 0-13.32 1.701c-12.56-23.677-40.21-40.126-72.3-40.126-34.33 0-63.58 18.825-74.7 45.198a49.823 49.823 0 0 0-12.87-1.671c-24.19 0-43.8 16.967-43.8 37.891 0 1.296.08 2.59.23 3.877a35.757 35.757 0 0 0-5.2-.384c-16.81 0-30.44 11.789-30.44 26.324 0 13.517 11.73 24.608 26.84 26.152l-.12.185h302.73c7.21-7 11.59-16.221 11.59-26.323-.01-21.194-19.26-38.504-43.46-39.549Zm-996.75 93.462c-2.448-13.24-15.716-23.357-31.71-23.357a36.912 36.912 0 0 0-9.349 1.195c-8.815-16.619-28.223-28.166-50.741-28.166-24.104 0-44.63 13.212-52.441 31.724a35.067 35.067 0 0 0-9.036-1.174c-16.975 0-30.742 11.909-30.742 26.594.001.91.055 1.82.164 2.724a24.65 24.65 0 0 0-3.65-.27c-11.803 0-21.344 8.274-21.344 18.498 0 9.469 8.232 17.273 18.839 18.348l-.092.135h212.456c5.065-4.916 8.139-11.383 8.139-18.498 0-14.876-13.511-27.02-30.493-27.753Z" fill="#fff"/><path d="M1135.49 586.4c.28.547 5.44-2.697 12.94-3.693 3.9-.526 7.58-.967 11 1.096 2.46 1.487 4.15 3.899 5.38 5.691.64.925 1.55 2.462 3.34 5.542 1.42 2.476 2.18 3.714 2.18 3.757v.071c.26.114 1.51-2.234 2.42-3.678a23.32 23.32 0 0 1 4.35-5.051 17.341 17.341 0 0 1 8.01-3.6 19.09 19.09 0 0 1 8.54.711c2.71.759 5.29 1.933 7.64 3.479 1.13.686 2.15 1.535 3.02 2.519.1.113.25.313.29.284.16-.085-1.28-3.151-2.36-4.788-2.92-4.432-8.12-5.805-10.68-6.474-7.06-1.871-14-.206-16.3 1.843l-2.61 2.369a39.045 39.045 0 0 0-5.69-5.756 17.622 17.622 0 0 0-9.07-3.436c-2.27-.157-4.72.149-10.24 1.956a40.906 40.906 0 0 0-9.31 4.746c-.31.185-3.09 2.013-2.85 2.412Zm-50.47 21.82c.26.498 4.98-2.49 11.8-3.444 3.56-.498 6.92-.918 10.05.946 2.26 1.345 3.81 3.558 4.98 5.144.59.84 1.43 2.241 3.08 5.044 1.34 2.256 2.01 3.387 2.02 3.422-.01.01-.01.021-.01.032s0 .022.01.032c.23.107 1.36-2.056 2.18-3.372a21.418 21.418 0 0 1 3.95-4.639 15.836 15.836 0 0 1 7.3-3.329c2.62-.403 5.29-.206 7.83.576a24.87 24.87 0 0 1 6.99 3.138c1.03.622 1.97 1.392 2.77 2.283.09.107.23.285.27.264.03-.022-1.19-2.882-2.19-4.369-2.69-4.026-7.45-5.257-9.77-5.855-6.46-1.672-12.8-.114-14.89 1.772l-2.37 2.134a35.714 35.714 0 0 0-5.18-5.222 16.137 16.137 0 0 0-8.31-3.095c-2.07-.135-4.31.164-9.34 1.836-3 1.094-5.85 2.567-8.48 4.382-.35.249-2.88 1.95-2.69 2.32ZM769.599 484.678c.306.433 4.419-2.925 10.822-4.625 3.329-.889 6.481-1.679 9.676-.299 2.305.996 4.041 2.846 5.314 4.269.662.711 1.615 1.935 3.557 4.368 1.537 1.964 2.306 2.946 2.313 2.981.007.036 0 .043.042.05.235.071 1.06-2.085 1.686-3.422a19.825 19.825 0 0 1 3.209-4.824 15.368 15.368 0 0 1 6.56-3.984 17.016 17.016 0 0 1 7.513-.384 24.112 24.112 0 0 1 7.029 2.134 11.913 11.913 0 0 1 2.91 1.822c.092.085.242.234.277.213.036-.021-1.472-2.568-2.589-3.849-3.038-3.464-7.706-4.055-9.961-4.347-6.353-.811-12.194 1.423-13.959 3.415l-1.999 2.32a33.928 33.928 0 0 0-5.556-4.269 15.563 15.563 0 0 0-8.275-1.928c-1.985.121-4.076.654-8.665 2.846a36.041 36.041 0 0 0-7.563 5.115c-.356.192-2.568 2.077-2.341 2.398Zm401.091 145.141c.33.626 6.21-3.123 14.8-4.318 4.46-.619 8.68-1.153 12.6 1.188 2.84 1.686 4.77 4.432 6.2 6.452.71 1.053 1.79 2.811 3.87 6.325 1.68 2.846 2.51 4.269 2.52 4.269.02 0 0 .064.04.078.3.128 1.72-2.575 2.75-4.226a25.88 25.88 0 0 1 4.98-5.82 19.825 19.825 0 0 1 9.15-4.169c4.16-.711 7.36.093 9.82.712a31.23 31.23 0 0 1 8.77 3.941c1.29.775 2.46 1.734 3.48 2.846.11.128.28.356.33.327.17-.106-1.5-3.607-2.74-5.478-3.37-5.051-9.34-6.595-12.25-7.342-8.11-2.134-16.05-.142-18.67 2.22l-2.97 2.725a44.86 44.86 0 0 0-6.51-6.553 20.195 20.195 0 0 0-10.41-3.877c-2.6-.164-5.4.199-11.71 2.305a46.808 46.808 0 0 0-10.68 5.492c-.43.335-3.61 2.441-3.37 2.903ZM16.961 558.39c.463.484 4.831-4.51 12.344-7.904 3.906-1.757 7.613-3.372 11.817-2.291 3.038.783 5.543 2.768 7.392 4.226.954.761 2.377 2.085 5.215 4.738 2.284 2.135 3.43 3.195 3.45 3.237.022.043 0 .057.065.064.299.043.875-2.81 1.373-4.588a24.823 24.823 0 0 1 2.953-6.638 18.907 18.907 0 0 1 7.235-6.261 20.875 20.875 0 0 1 9.15-1.971 29.57 29.57 0 0 1 9.056 1.245 14.69 14.69 0 0 1 3.942 1.679c.135.093.356.25.391.214.128-.142-2.333-2.896-3.97-4.269-4.425-3.706-10.28-3.557-13.147-3.422-7.962.256-14.67 4.169-16.435 7.022-.178.285-1.985 3.28-1.985 3.28a42.81 42.81 0 0 0-7.691-4.233 19.266 19.266 0 0 0-10.544-.747c-2.412.541-4.873 1.629-10.067 5.236a44.838 44.838 0 0 0-8.239 7.869c-.32.384-2.653 3.158-2.305 3.514Zm31.789-46.343c.242.37 3.728-2.291 9.05-3.501 2.768-.626 5.386-1.181 7.968.079a13.63 13.63 0 0 1 4.269 3.721c.526.619 1.273 1.664 2.76 3.756 1.203 1.686 1.808 2.533 1.815 2.561a.05.05 0 0 0 0 .043c.192.071.939-1.7 1.5-2.796a16.404 16.404 0 0 1 2.79-3.913 12.6 12.6 0 0 1 5.52-3.102 13.78 13.78 0 0 1 6.198-.071 19.49 19.49 0 0 1 5.691 2.006 9.76 9.76 0 0 1 2.334 1.608c.07.078.192.206.22.192a14.985 14.985 0 0 0-2.006-3.294c-2.383-2.988-6.211-3.635-8.075-3.955-5.2-.883-10.074.768-11.59 2.383l-1.722 1.871a28.406 28.406 0 0 0-4.432-3.764 12.722 12.722 0 0 0-6.737-1.878c-1.637.036-3.38.413-7.222 2.071a29.296 29.296 0 0 0-6.403 4.012c-.227.199-2.106 1.693-1.928 1.971Z" fill="#4D4D4D"/><path opacity=".25" d="M1137.17 151.687c-4.64 3.92-9.63 7.527-12.61 13.097l14.15-.889-1.54-12.208Zm28.2 40.929a2.94 2.94 0 0 1-.39.1c-.37.08-.76.046-1.12-.095a1.993 1.993 0 0 1-.88-.702l-.82.761-1.42 2.269c-2.57 4.589-2.25 7.421 4.32 6.873 1.7-.135 3.68-.057 4.56 1.779.93-.676 1.81-1.487 2.74-2.135l-6.8-8.907-.19.057Zm32.8-5.983c-4.14 3.125-8.7 6.289-13.68 9.49l18.59-7.69c-.53.144-1.08.192-1.62.142a4.571 4.571 0 0 1-1.86-.61 4.489 4.489 0 0 1-1.43-1.332Zm200.03 33.359a5.4 5.4 0 0 0-.21-.498c-.27-.661-.54-1.302-.86-1.892-.16-.29-.33-.57-.52-.84a4.828 4.828 0 0 0-.61-.711c-.11-.11-.22-.212-.35-.306a4.21 4.21 0 0 0-1.83-.832 7.08 7.08 0 0 0-.59-.086 6.21 6.21 0 0 0-.64 0 40.837 40.837 0 0 1-6.75-.569 37.164 37.164 0 0 1-4.27-.96 38.282 38.282 0 0 1-5.08-1.857 20.66 20.66 0 0 1-1.47-.712c-.71-.348-1.42-.711-2.13-1.117a66.23 66.23 0 0 1-2.14-1.259c-.71-.441-1.42-.939-2.13-1.423a52.623 52.623 0 0 1-3.68-2.881c-1.2-1.018-2.37-2.134-3.51-3.259a43.615 43.615 0 0 1-4.7-5.492c-.46-.633-.9-1.273-1.31-1.928a42.902 42.902 0 0 1-2.25-3.991c-3.32-6.801-4.55-14.343-3.8-22.475.31-3.35.56-5.449.28-6.858a3.523 3.523 0 0 0-.31-.946 3.767 3.767 0 0 0-.19-.327 3.323 3.323 0 0 0-.88-.819 4.47 4.47 0 0 0-.67-.355 8.763 8.763 0 0 0-.81-.328c-.3-.106-.63-.206-.98-.305-.36-.1-.93-.249-1.47-.385l-1.78-.405-.81-.178c-.47-.107-.94-.221-1.42-.342l-1.38-.355c-.92-.242-1.82-.484-2.74-.712a23.018 23.018 0 0 0-3.72-.555 15.26 15.26 0 0 0-4 .271c-.72.158-1.43.363-2.13.612-.77.276-1.56.513-2.35.711a20.597 20.597 0 0 1-14.12-1.423l-.96-.498c-.62-.353-1.24-.738-1.82-1.152a21.098 21.098 0 0 1-4.05-3.693c-.51-.569-.98-1.165-1.43-1.786a25.616 25.616 0 0 1-3.55-7.47 8.53 8.53 0 0 0-.71-1.757c-.2-.373-.47-.698-.8-.953-.07-.05-.14-.092-.21-.128-.75.306-1.51.612-2.27.932-8.09 3.453-16.19 6.913-24.29 10.38-8.09 3.467-16.18 6.943-24.26 10.429-1.93.826-3.85 1.665-5.77 2.498-7.7 3.35-15.38 6.737-23.08 10.066l-.96.413c-3.08 3.078-6.56 6.244-10.44 9.498a4.589 4.589 0 0 1 1.11 3.774 4.564 4.564 0 0 1-.76 1.871 4.484 4.484 0 0 1-1.48 1.363c7.9-3.259 15.8-6.543 23.68-9.854 18.86-7.961 37.63-16.121 56.39-24.289 3.7-1.607 5.91-1.536 8.45 1.872 5.3 7.114 12.9 11.119 22.94 10.671 2.04-.092 4.19.164 5.54 1.693 5.99 6.788 14.6 8.367 23.57 8.915 3.52.213 3.85 1.643 2.49 3.87-2.96 4.831-3.99 10.095-5.16 15.275-3.05 13.467.71 25.192 9.6 35.351 8.29 9.484 19.72 13.788 32.82 14.941 5.22.462 8.16 2.426 9.6 7.299 3.42 11.582 40.55 33.232 53.36 35.224 4.18-15.183 28.14-24.04 32.32-39.222-1.77-.491-5.48-2.227-10.22-4.703-1.16.27-2.34.527-3.56.776a87.131 87.131 0 0 1-21.41 7.519c-15.85-9.348-44.38-28.607-46.37-33.338Z" fill="#D9674D"/><path opacity=".25" d="M1140.97 163.753c.13-.805.46-1.564.96-2.213l-3.1-4.048a214.192 214.192 0 0 1 26.89-18.007c.61-.562 1.22-1.117 1.83-1.686h-.19a2.328 2.328 0 0 1-1.23-.496 2.244 2.244 0 0 1-.74-1.091c-.14-.43-.15-.889-.02-1.323.12-.433.37-.82.71-1.112.34-.293.77-.478 1.21-.533.45-.054.9.024 1.31.225.4.202.73.518.96.908.22.391.33.839.3 1.288l2.22-2.049c7.22-6.68 14.23-13.581 21.52-20.198 17.02-15.467 34.19-30.777 51.22-46.244 1.93-1.764 4.09-3.984.81-6.979-11.84-10.85-15.28-33.288 1.31-47.211 2.64-2.206 2.85-4.134 1.29-6.666-3.63-5.891-4.41-12.643-5.38-19.21-.47-3.272-1.63-5.044-4.4-6.267-18.66-8.189-29.41-29.817-23.75-49.46 1.02-3.557.39-5.542-3.65-6.296-1.26-.235-2.49-.52-3.7-.832 0 0-10.67 11.724-30 5.812 0 0-18.83 19.102-36.04 3.671 0 0-15.95 12.607-30.87 4.731l6.09 48.457c14.33 1.672 20.89-10.345 20.89-10.345 17.28 21.692 54.07-2.781 54.07-2.781 1.2 7.463 3.99 14.406 9.45 20.51 7.07 7.869 15.97 12.138 25.81 14.578 5.77 1.423 3.88 6.524 5.82 9.733 1.42 2.376-.78 3.557-2.53 4.752-17.49 11.853-18.5 30.215-9.7 44.387 2.5 4.02 1.78 6.68-1.42 9-8.3 6.061-15.03 13.794-22.58 20.631a7144.66 7144.66 0 0 0-56.65 52.021c-.82.776-1.68 1.515-2.56 2.248l1.54 12.209 2.26-.143.04.029Z" fill="#D9674D"/><path d="M1110.41-61.554c14.94 7.876 30.86-4.731 30.86-4.731 17.22 15.431 36.04-3.671 36.04-3.671 19.36 5.926 30.03-5.813 30.03-5.813 1.21.313 2.44.598 3.7.833 4.05.754 4.68 2.725 3.65 6.296-5.69 19.643 5.1 41.264 23.75 49.46 2.77 1.223 3.93 2.995 4.41 6.267.96 6.567 1.74 13.319 5.37 19.21 1.57 2.532 1.35 4.46-1.28 6.666-16.6 13.922-13.16 36.361-1.31 47.21 3.27 2.996 1.12 5.216-.81 6.98-17 15.502-34.15 30.813-51.23 46.279-7.28 6.617-14.3 13.518-21.51 20.198l-2.23 2.049v.064c-.05.571-.32 1.1-.75 1.481s-.98.587-1.55.575c-.62.57-1.23 1.124-1.84 1.686 21.17-12.016 51.02-24.082 75.05-14.99 0 0 1.74 19.629-23.87 45.846l15.02-6.723 5.22-2.313a10992.67 10992.67 0 0 1 43.87-19.251c1.02-.441 2.05-.868 3.08-1.295 3.09-1.259 6.22-2.447 9.29-3.764.46-.203.94-.353 1.43-.448.25-.048.51-.063.77-.042.3.017.59.102.86.249l1.13-.47c3.43-1.373 6.88-2.668 10.28-4.091.5-.215 1.02-.382 1.55-.498.28-.053.56-.077.84-.071.41.008.81.131 1.16.356.35.24.64.559.84.932.31.554.55 1.144.71 1.757a23.757 23.757 0 0 0 3.68 7.435 21.372 21.372 0 0 0 3.95 4.069c.59.464 1.2.899 1.83 1.302a21.798 21.798 0 0 0 2.99 1.572 23.861 23.861 0 0 0 15.4.996c.85-.213 1.72-.469 2.59-.775.77-.288 1.57-.525 2.38-.712.74-.159 1.49-.273 2.24-.341.71-.064 1.42-.085 2.13-.064 1.36.04 2.72.19 4.05.448 1 .178 1.98.391 2.98.612l1.49.32 1.52.292.88.156 1.93.356c.59.121 1.12.228 1.6.341.49.114.72.185 1.06.278a7.33 7.33 0 0 1 1.6.647c.12.073.24.154.36.242.22.155.41.343.57.555.08.105.14.214.21.327.15.296.25.613.31.94.26 1.422-.09 3.557-.53 6.943-1.07 8.239.05 15.823 3.47 22.589a35.755 35.755 0 0 0 3.7 5.869 42.58 42.58 0 0 0 4.98 5.407 59.089 59.089 0 0 0 3.75 3.18 53.55 53.55 0 0 0 3.93 2.796c.75.484 1.52.946 2.31 1.423.78.477 1.51.825 2.28 1.209.77.385 1.51.712 2.28 1.06.52.228 1.04.441 1.58.641 1.79.697 3.62 1.272 5.49 1.721 1.52.362 3.06.642 4.61.84 2.44.313 4.91.435 7.38.363h.71c.23 0 .43.042.63.071.71.103 1.39.371 1.98.782.13.093.26.2.38.306.23.217.45.455.64.712.2.263.37.541.53.832.33.611.63 1.241.89 1.886l.21.498c2.59 6.025 9.6 39.684 42.22 33.75 1.35-.241 2.68-.495 3.97-.761 80.86-42.053-14.23-196.237 4.43-277.605.19-.818-8.18-36.995-20.42-88.674l-341.65 42.893 1.97 16.05Zm30.56 225.307 2.54-.135-1.58-2.078c-.5.649-.83 1.408-.96 2.213Zm24.57 28.735-1.88-2.462-.84 1.686c.05.073.1.142.15.207l.43-.399a2.072 2.072 0 0 0 2.14.968Z" fill="#FEFEFE"/><path d="M1164.97 192.716c.13-.024.26-.057.38-.1l.22-.085v-.043c-.41.072-.84.018-1.22-.154-.38-.173-.7-.456-.92-.814l-.42.399c.21.309.51.549.86.691.35.141.73.178 1.1.106Zm254.88 20.084-.21-.498c-.26-.645-.56-1.275-.89-1.886a6.73 6.73 0 0 0-.54-.832 4.791 4.791 0 0 0-1.01-1.018 4.632 4.632 0 0 0-1.98-.782c-.2 0-.41-.057-.63-.071-.23-.014-.46 0-.72 0a47.15 47.15 0 0 1-7.37-.363 42.534 42.534 0 0 1-10.11-2.561c-.53-.199-1.05-.413-1.58-.641-.76-.327-1.53-.711-2.27-1.06-.75-.348-1.54-.782-2.29-1.209-.74-.427-1.55-.911-2.3-1.423-1.35-.868-2.66-1.8-3.94-2.796a61.862 61.862 0 0 1-3.74-3.18 42.512 42.512 0 0 1-4.98-5.407c-.48-.626-.94-1.259-1.38-1.907a37.473 37.473 0 0 1-2.33-3.962c-3.42-6.766-4.53-14.35-3.46-22.589.44-3.393.78-5.521.53-6.943a3.482 3.482 0 0 0-.32-.94 3.857 3.857 0 0 0-.2-.327 2.8 2.8 0 0 0-.57-.555 5.4 5.4 0 0 0-.36-.242 5.79 5.79 0 0 0-.72-.341 12.55 12.55 0 0 0-.88-.306c-.32-.1-.71-.185-1.06-.277-.35-.093-1.02-.221-1.6-.342l-1.93-.356-.88-.156-1.52-.292-1.5-.32a69.46 69.46 0 0 0-2.97-.612 25.326 25.326 0 0 0-4.05-.448c-.71-.021-1.42 0-2.13.064-.76.068-1.5.182-2.24.341-.81.187-1.61.425-2.39.712-.87.306-1.73.562-2.59.775a23.836 23.836 0 0 1-15.39-.996c-.35-.147-.7-.303-1.03-.469a21.63 21.63 0 0 1-3.8-2.405 21.858 21.858 0 0 1-3.94-4.069 23.543 23.543 0 0 1-3.68-7.435 8.419 8.419 0 0 0-.71-1.757 2.755 2.755 0 0 0-.84-.932 2.232 2.232 0 0 0-1.16-.356c-.29-.006-.57.018-.84.071-.54.116-1.05.283-1.55.498-3.4 1.423-6.86 2.718-10.28 4.091l-1.14.47c.08.035.15.078.21.128.33.255.6.58.8.953.3.557.54 1.146.71 1.757a25.913 25.913 0 0 0 3.56 7.47c.44.621.91 1.217 1.42 1.786.72.842 1.5 1.63 2.33 2.355a22.7 22.7 0 0 0 1.72 1.337c.59.415 1.2.8 1.83 1.153l.96.498a20.575 20.575 0 0 0 14.11 1.423c.8-.198 1.58-.435 2.35-.712.7-.248 1.41-.453 2.13-.611a15.26 15.26 0 0 1 4-.271c1.26.083 2.5.269 3.72.555.92.207 1.82.448 2.74.712l1.38.355c.46.121.93.235 1.42.342l.81.178 1.78.405c.54.135 1.03.256 1.47.384.44.128.71.2.98.306.27.107.57.214.81.328a4.033 4.033 0 0 1 1.01.604c.21.165.39.356.54.569.07.107.13.214.2.328.14.3.24.618.3.946.28 1.423 0 3.507-.28 6.858-.75 8.132.48 15.652 3.8 22.475a43.031 43.031 0 0 0 2.25 3.991c.41.654.86 1.295 1.31 1.928a45.332 45.332 0 0 0 4.7 5.492 59.074 59.074 0 0 0 3.51 3.259 52.87 52.87 0 0 0 3.68 2.881c.71.505 1.42.982 2.13 1.423.72.441 1.43.861 2.14 1.259.71.399 1.42.769 2.13 1.117.49.235.98.463 1.47.712 1.65.735 3.34 1.356 5.08 1.856 1.4.403 2.83.724 4.27.961 2.23.376 4.49.567 6.76.569.21-.011.42-.011.64 0 .2 0 .39.05.58.085.67.127 1.3.413 1.83.833.13.094.24.196.35.306.23.219.43.457.62.711.18.27.35.55.51.84.32.59.59 1.23.87 1.892.07.164.14.334.2.498 1.99 4.731 30.52 23.99 46.43 33.317a87.32 87.32 0 0 0 21.41-7.52c-1.3.266-2.62.519-3.97.761-32.64 5.941-39.65-27.718-42.24-33.743Z" fill="#FEFEFE"/><path d="m1172.37 201.438 1.07 1.423c3.91-2.248 7.58-4.489 11.05-6.716-3.48 1.423-6.96 2.881-10.43 4.34-.6.252-1.17.572-1.69.953Z" fill="url(#c)"/><path d="M1200.61 177.505c-1.75.749-3.5 1.489-5.25 2.22l-3.72 1.543-3.73 1.537c-2.48 1.025-4.96 2.054-7.44 3.088-2.48 1.038-4.99 2.091-7.4 3.187-2.42 1.096-4.91 2.206-7.32 3.372.14-.029.28-.067.41-.114l.44-.17c2.68-1.257 5.38-2.471 8.1-3.643a555.51 555.51 0 0 1 8.19-3.45c2.74-1.124 5.49-2.239 8.23-3.344l4.12-1.665 4.12-1.679c1.95-.797 3.88-1.601 5.81-2.412 3.56-1.484 7.1-2.99 10.63-4.517l1.11-1.132c-1.94.868-3.87 1.743-5.82 2.597a1012.65 1012.65 0 0 1-10.48 4.582Z" fill="url(#d)"/><path d="M1173.64 160.857c-9.97 1.572-20.05 2.213-30.14 2.761l20.16 26.408c4.27-8.537 8.55-17.093 12.85-25.669 1.66-3.358.55-4.041-2.87-3.5Z" fill="url(#e)"/><path opacity=".25" d="M1197.38 183.552c.09-.887.43-1.731.98-2.428a4.606 4.606 0 0 1 2.16-1.493 4.585 4.585 0 0 1 4.84 1.31c3.88-3.244 7.36-6.41 10.44-9.498a1033.568 1033.568 0 0 1-16.44 6.93l-4.12 1.679-4.12 1.665c-2.74 1.11-5.49 2.224-8.23 3.343-2.74 1.12-5.48 2.277-8.21 3.472a310.057 310.057 0 0 0-8.1 3.643l-.44.171c-.13.047-.27.085-.42.113l-.15.065 6.8 8.907a8.44 8.44 0 0 1 1.69-.975c3.47-1.423 6.95-2.895 10.43-4.34 4.99-3.201 9.55-6.365 13.68-9.49a4.599 4.599 0 0 1-.79-3.074Z" fill="#D9674D"/><path d="M1197.38 183.552c.09-.887.43-1.731.98-2.428a4.606 4.606 0 0 1 2.16-1.493 4.585 4.585 0 0 1 4.84 1.31c3.88-3.244 7.36-6.41 10.44-9.498a1033.568 1033.568 0 0 1-16.44 6.93l-4.12 1.679-4.12 1.665c-2.74 1.11-5.49 2.224-8.23 3.343-2.74 1.12-5.48 2.277-8.21 3.472a310.057 310.057 0 0 0-8.1 3.643l-.44.171c-.13.047-.27.085-.42.113l-.15.065 6.8 8.907a8.44 8.44 0 0 1 1.69-.975c3.47-1.423 6.95-2.895 10.43-4.34 4.99-3.201 9.55-6.365 13.68-9.49a4.599 4.599 0 0 1-.79-3.074Z" fill="url(#f)"/><path opacity=".25" d="M1144.14 159.285c7.18-6.612 14.38-13.212 21.58-19.8a214.192 214.192 0 0 0-26.89 18.007l3.1 4.048c.5-.649 1.07-1.247 1.69-1.786l.52-.469Z" fill="#D9674D"/><path d="M1144.14 159.285c7.18-6.612 14.38-13.212 21.58-19.8a214.192 214.192 0 0 0-26.89 18.007l3.1 4.048c.5-.649 1.07-1.247 1.69-1.786l.52-.469Z" fill="url(#g)"/><path d="M1165.72 192.467c2.42-1.167 4.86-2.284 7.32-3.373 2.45-1.088 4.92-2.134 7.4-3.187 2.47-1.053 4.98-2.063 7.44-3.088l3.73-1.536 3.72-1.544c1.75-.735 3.51-1.475 5.26-2.22 3.49-1.503 6.98-3.026 10.45-4.567 1.95-.854 3.88-1.729 5.82-2.597 25.65-26.231 23.92-45.853 23.92-45.853-24.03-9.092-53.88 2.974-75.05 14.991a9383.375 9383.375 0 0 1-21.58 19.799l-.52.47c-.62.538-1.19 1.136-1.69 1.785l1.58 2.078c10.08-.548 20.15-1.188 30.13-2.761 3.42-.54 4.55.143 2.85 3.501-4.27 8.537-8.56 17.093-12.85 25.668l1.88 2.462c.06-.005.12-.015.19-.028Zm52-37.372a2.968 2.968 0 0 1 2.54 2.074 2.968 2.968 0 0 1-.95 3.141 2.948 2.948 0 0 1-3.26.332 2.932 2.932 0 0 1-1.21-1.207 2.891 2.891 0 0 1-.34-1.68c.03-.387.14-.762.32-1.106.19-.343.43-.647.73-.895.3-.247.65-.433 1.02-.546.37-.113.76-.152 1.15-.113Zm-9.82-28.458a3.798 3.798 0 0 1 3.26 2.657c.22.716.22 1.481.01 2.198a3.81 3.81 0 0 1-1.22 1.831 3.777 3.777 0 0 1-4.18.425 3.769 3.769 0 0 1-1.56-1.549 3.758 3.758 0 0 1-.01-3.57c.23-.439.55-.828.93-1.145a3.786 3.786 0 0 1 2.77-.847Zm-20.7 17.501a3.256 3.256 0 0 1 2.79 2.292c.18.615.18 1.271 0 1.886a3.257 3.257 0 0 1-4.64 1.927 3.22 3.22 0 0 1-1.34-1.331c-.3-.566-.43-1.21-.37-1.85a3.27 3.27 0 0 1 1.16-2.223 3.233 3.233 0 0 1 2.4-.736v.035Z" fill="#FEFEFE"/><path d="M1165.72 192.467c2.42-1.167 4.86-2.284 7.32-3.373 2.45-1.088 4.92-2.134 7.4-3.187 2.47-1.053 4.98-2.063 7.44-3.088l3.73-1.536 3.72-1.544c1.75-.735 3.51-1.475 5.26-2.22 3.49-1.503 6.98-3.026 10.45-4.567 1.95-.854 3.88-1.729 5.82-2.597 25.65-26.231 23.92-45.853 23.92-45.853-24.03-9.092-53.88 2.974-75.05 14.991a9383.375 9383.375 0 0 1-21.58 19.799l-.52.47c-.62.538-1.19 1.136-1.69 1.785l1.58 2.078c10.08-.548 20.15-1.188 30.13-2.761 3.42-.54 4.55.143 2.85 3.501-4.27 8.537-8.56 17.093-12.85 25.668l1.88 2.462c.06-.005.12-.015.19-.028Zm52-37.372a2.968 2.968 0 0 1 2.54 2.074 2.968 2.968 0 0 1-.95 3.141 2.948 2.948 0 0 1-3.26.332 2.932 2.932 0 0 1-1.21-1.207 2.891 2.891 0 0 1-.34-1.68c.03-.387.14-.762.32-1.106.19-.343.43-.647.73-.895.3-.247.65-.433 1.02-.546.37-.113.76-.152 1.15-.113Zm-9.82-28.458a3.798 3.798 0 0 1 3.26 2.657c.22.716.22 1.481.01 2.198a3.81 3.81 0 0 1-1.22 1.831 3.777 3.777 0 0 1-4.18.425 3.769 3.769 0 0 1-1.56-1.549 3.758 3.758 0 0 1-.01-3.57c.23-.439.55-.828.93-1.145a3.786 3.786 0 0 1 2.77-.847Zm-20.7 17.501a3.256 3.256 0 0 1 2.79 2.292c.18.615.18 1.271 0 1.886a3.257 3.257 0 0 1-4.64 1.927 3.22 3.22 0 0 1-1.34-1.331c-.3-.566-.43-1.21-.37-1.85a3.27 3.27 0 0 1 1.16-2.223 3.233 3.233 0 0 1 2.4-.736v.035Z" fill="url(#h)"/><path d="M1165.54 192.488v.043l.16-.064c-.06.009-.11.017-.16.021Z" fill="#FEFEFE"/><path d="M1165.54 192.488v.043l.16-.064c-.06.009-.11.017-.16.021Z" fill="url(#i)"/><path opacity=".4" d="m1204.21 187.977-1.11.456c.39-.1.76-.253 1.11-.456Z" fill="url(#j)"/><path opacity=".25" d="M1206.48 184.449a4.682 4.682 0 0 0-.2-1.86 4.62 4.62 0 0 0-.94-1.619 228.162 228.162 0 0 1-7.17 5.691c.38.546.87 1.002 1.44 1.338a4.64 4.64 0 0 0 1.88.605c.54.05 1.09.002 1.61-.143l1.11-.455c.63-.366 1.17-.88 1.57-1.5.4-.619.64-1.325.7-2.057Z" fill="#D9674D"/><path opacity=".4" d="M1206.48 184.449a4.682 4.682 0 0 0-.2-1.86 4.62 4.62 0 0 0-.94-1.619 228.162 228.162 0 0 1-7.17 5.691c.38.546.87 1.002 1.44 1.338a4.64 4.64 0 0 0 1.88.605c.54.05 1.09.002 1.61-.143l1.11-.455c.63-.366 1.17-.88 1.57-1.5.4-.619.64-1.325.7-2.057Z" fill="url(#k)"/><path opacity=".25" d="M1197.38 183.552a4.6 4.6 0 0 0 .81 3.052c2.54-1.897 4.93-3.794 7.17-5.691a4.555 4.555 0 0 0-2.23-1.378 4.591 4.591 0 0 0-2.63.075 4.65 4.65 0 0 0-2.15 1.504 4.625 4.625 0 0 0-.97 2.438Z" fill="#D9674D"/><path d="M1197.38 183.552a4.6 4.6 0 0 0 .81 3.052c2.54-1.897 4.93-3.794 7.17-5.691a4.555 4.555 0 0 0-2.23-1.378 4.591 4.591 0 0 0-2.63.075 4.65 4.65 0 0 0-2.15 1.504 4.625 4.625 0 0 0-.97 2.438Z" fill="url(#l)"/><path opacity=".4" d="M1197.38 183.552a4.6 4.6 0 0 0 .81 3.052c2.54-1.897 4.93-3.794 7.17-5.691a4.555 4.555 0 0 0-2.23-1.378 4.591 4.591 0 0 0-2.63.075 4.65 4.65 0 0 0-2.15 1.504 4.625 4.625 0 0 0-.97 2.438Z" fill="url(#m)"/><path opacity=".25" d="M1169.86 135.679c.02-.447-.08-.893-.3-1.281a2.33 2.33 0 0 0-.96-.902c-.41-.2-.86-.277-1.3-.222-.45.054-.87.239-1.21.53-.34.291-.58.677-.71 1.108-.12.431-.12.888.02 1.316a2.283 2.283 0 0 0 1.96 1.586h.19l2.31-2.135Z" fill="#D9674D"/><path opacity=".4" d="M1169.86 135.679c.02-.447-.08-.893-.3-1.281a2.33 2.33 0 0 0-.96-.902c-.41-.2-.86-.277-1.3-.222-.45.054-.87.239-1.21.53-.34.291-.58.677-.71 1.108-.12.431-.12.888.02 1.316a2.283 2.283 0 0 0 1.96 1.586h.19l2.31-2.135Z" fill="url(#n)"/><path d="M1169.86 135.743v-.064l-2.31 2.135c.58.011 1.14-.197 1.56-.581.43-.384.7-.917.75-1.49Z" fill="#FEFEFE"/><path opacity=".4" d="M1169.86 135.743v-.064l-2.31 2.135c.58.011 1.14-.197 1.56-.581.43-.384.7-.917.75-1.49Z" fill="url(#o)"/><path d="M1186.58 150.57c.64.061 1.28-.068 1.85-.372a3.273 3.273 0 0 0 1.33-1.336c.3-.568.43-1.212.36-1.851a3.2 3.2 0 0 0-.72-1.742 3.262 3.262 0 0 0-3.46-1.047c-.61.187-1.16.551-1.56 1.048a3.296 3.296 0 0 0-.73 1.742c-.04.426 0 .856.13 1.265.12.41.32.79.6 1.121.27.33.6.604.98.805.38.201.79.326 1.22.367Z" fill="#FEFEFE"/><path d="M1186.58 150.57c.64.061 1.28-.068 1.85-.372a3.273 3.273 0 0 0 1.33-1.336c.3-.568.43-1.212.36-1.851a3.2 3.2 0 0 0-.72-1.742 3.262 3.262 0 0 0-3.46-1.047c-.61.187-1.16.551-1.56 1.048a3.296 3.296 0 0 0-.73 1.742c-.04.426 0 .856.13 1.265.12.41.32.79.6 1.121.27.33.6.604.98.805.38.201.79.326 1.22.367Z" fill="url(#p)"/><path opacity=".4" d="M1186.58 150.57c.64.061 1.28-.068 1.85-.372a3.273 3.273 0 0 0 1.33-1.336c.3-.568.43-1.212.36-1.851a3.2 3.2 0 0 0-.72-1.742 3.262 3.262 0 0 0-3.46-1.047c-.61.187-1.16.551-1.56 1.048a3.296 3.296 0 0 0-.73 1.742c-.04.426 0 .856.13 1.265.12.41.32.79.6 1.121.27.33.6.604.98.805.38.201.79.326 1.22.367Z" fill="url(#q)"/><path d="M1208.09 134.177a3.777 3.777 0 0 0 3.2-4.285 3.775 3.775 0 0 0-4.28-3.207 3.784 3.784 0 1 0 1.08 7.492Z" fill="#FEFEFE"/><path d="M1208.09 134.177a3.777 3.777 0 0 0 3.2-4.285 3.775 3.775 0 0 0-4.28-3.207 3.784 3.784 0 1 0 1.08 7.492Z" fill="url(#r)"/><path opacity=".4" d="M1208.09 134.177a3.777 3.777 0 0 0 3.2-4.285 3.775 3.775 0 0 0-4.28-3.207 3.784 3.784 0 1 0 1.08 7.492Z" fill="url(#s)"/><path d="M1217.16 160.971a2.94 2.94 0 0 0 2.88-1.556c.28-.516.39-1.101.33-1.682a2.95 2.95 0 0 0-3.8-2.525c-.56.171-1.05.504-1.42.956-.37.452-.6 1.003-.65 1.584-.04.387 0 .776.11 1.148.11.371.3.716.55 1.015.24.3.55.547.89.729.34.182.72.294 1.11.331Z" fill="#FEFEFE"/><path d="M1217.16 160.971a2.94 2.94 0 0 0 2.88-1.556c.28-.516.39-1.101.33-1.682a2.95 2.95 0 0 0-3.8-2.525c-.56.171-1.05.504-1.42.956-.37.452-.6 1.003-.65 1.584-.04.387 0 .776.11 1.148.11.371.3.716.55 1.015.24.3.55.547.89.729.34.182.72.294 1.11.331Z" fill="url(#t)"/><path opacity=".4" d="M1217.16 160.971a2.94 2.94 0 0 0 2.88-1.556c.28-.516.39-1.101.33-1.682a2.95 2.95 0 0 0-3.8-2.525c-.56.171-1.05.504-1.42.956-.37.452-.6 1.003-.65 1.584-.04.387 0 .776.11 1.148.11.371.3.716.55 1.015.24.3.55.547.89.729.34.182.72.294 1.11.331Z" fill="url(#u)"/><path d="m1198.39 182.841-28.33-44.914a15.042 15.042 0 0 0-11.07-6.965c-48.2-5.158-101.74 6.738-149.92 37.116-60.006 37.842-97.763 95.604-106.721 153.323a21.567 21.567 0 0 0 15.133 23.997c55.956 16.776 124.348 7.584 184.358-30.257 48.15-30.379 81.96-73.585 98.07-119.302.74-2.141.99-4.423.73-6.674a14.938 14.938 0 0 0-2.25-6.324Z" fill="#F6F6F6"/><path d="M1148.35 128.963a52.608 52.608 0 0 1-7.55-35.703 52.611 52.611 0 0 1 17.51-32.019 7.145 7.145 0 0 0 2.43-4.36 7.177 7.177 0 0 0-1.01-4.889l-.56-.896a7.129 7.129 0 0 0-8.54-2.846 141.218 141.218 0 0 0-53.99 36.555 141.187 141.187 0 0 0-31.8 56.914c28.32-9.348 57.04-13.112 84.34-11.518-.28-.413-.57-.818-.83-1.238Zm48.81 77.355a52.571 52.571 0 0 0 28.96 22.194 52.597 52.597 0 0 0 36.44-1.996 7.17 7.17 0 0 1 8.98 2.675l.56.897a7.152 7.152 0 0 1 1.05 4.643 7.118 7.118 0 0 1-2.12 4.264 141.073 141.073 0 0 1-56.26 33.011 141.104 141.104 0 0 1-65.1 4.176c20.63-21.521 36.41-45.817 46.73-71.144.27.462.49.889.76 1.28ZM917.347 345.363c24.481 7.356 51.353 9.725 78.865 6.915l-66.165-104.881c-14.393 23.613-23.827 48.883-27.747 74.147a21.46 21.46 0 0 0 15.047 23.819Z" fill="#00B5DA"/><path d="M1084.41 272.904c11.3-25.487-.21-55.305-25.7-66.599-25.49-11.295-55.3.211-66.598 25.698-11.295 25.487.211 55.305 25.698 66.599 25.49 11.295 55.31-.211 66.6-25.698Z" fill="#D1D3D4"/><path d="M1080.11 277.683c12.94-24.692 3.42-55.2-21.27-68.141-24.7-12.942-55.2-3.416-68.145 21.275-12.942 24.692-3.416 55.2 21.275 68.141 24.69 12.942 55.2 3.416 68.14-21.275Z" fill="#00B5DA"/><path d="M986.295 342.24a2.95 2.95 0 0 1-.095 3.278 2.959 2.959 0 0 1-3.064 1.168 3.05 3.05 0 0 1-2.22-3.557 2.955 2.955 0 0 1 1.317-1.851 2.99 2.99 0 0 1 1.083-.411 2.985 2.985 0 0 1 1.157.035c.759.19 1.413.67 1.822 1.338Zm-33.652-49.126a2.953 2.953 0 0 1-4.484-1.999 2.934 2.934 0 0 1 .496-2.203c.224-.316.508-.585.836-.792a2.97 2.97 0 0 1 4.077.918 2.96 2.96 0 0 1-.925 4.076Zm47.354-12.756a2.952 2.952 0 0 1-4.069-.925 2.93 2.93 0 0 1-.386-2.225 2.94 2.94 0 0 1 1.303-1.844 2.958 2.958 0 0 1 4.075.925c.42.662.56 1.463.38 2.226a2.932 2.932 0 0 1-1.303 1.843Zm75.363-47.531c-.66.417-1.46.553-2.23.38a2.933 2.933 0 0 1-1.84-1.305 2.909 2.909 0 0 1-.38-2.226 2.944 2.944 0 0 1 3.53-2.223 2.95 2.95 0 0 1 2.22 3.529 2.948 2.948 0 0 1-1.3 1.845Zm-107.328 85.992a2.954 2.954 0 0 1-4.45-3.151 2.954 2.954 0 0 1 3.531-2.223 2.953 2.953 0 0 1 1.844 1.304 2.954 2.954 0 0 1-.925 4.07Zm-31.838-57.25a2.953 2.953 0 0 1-3.152 4.454 2.958 2.958 0 0 1-2.261-2.38 2.95 2.95 0 0 1 1.336-2.999 2.944 2.944 0 0 1 3.284.087c.317.225.586.509.793.838Zm62.345 90.474-67.24-106.652c-.412.669-.804 1.337-1.209 2.006l66.165 104.881 2.284-.235Z" fill="#00A3C4"/><path d="M1069.92 272.339c9.99-19.061 2.63-42.611-16.43-52.602-19.06-9.99-42.61-2.637-52.6 16.424-9.989 19.061-2.636 42.611 16.43 52.602 19.06 9.99 42.61 2.637 52.6-16.424Z" fill="#fff"/><path opacity=".3" d="M1002.44 275.037a39.03 39.03 0 0 0 17.11 14.808 38.96 38.96 0 0 0 42.67-7.322 38.962 38.962 0 0 0-25.79-67.223 38.968 38.968 0 0 0-32.84 16.456 38.864 38.864 0 0 0-6.192 13.888 38.962 38.962 0 0 0-.401 15.198 39.029 39.029 0 0 0 5.443 14.195Zm62.4-39.35a34.838 34.838 0 0 1 5.36 19.484 34.757 34.757 0 0 1-6.38 19.177 34.787 34.787 0 0 1-36.1 13.854 34.801 34.801 0 0 1-10.88-63.386 34.82 34.82 0 0 1 26.26-4.505c9 2.039 16.82 7.569 21.75 15.376h-.01Z" fill="url(#v)"/><path d="M1194.27 166.775c16.01-10.101 26.78-21.797 24.05-26.124-2.73-4.327-17.92.354-33.94 10.455-16.01 10.101-26.78 21.797-24.06 26.124 2.73 4.327 17.93-.354 33.95-10.455Z" fill="#00B5DA"/><path opacity=".1" d="M1207.87 164.06c10.8-6.739 17.72-15.156 15.45-18.799-2.27-3.644-12.87-1.135-23.68 5.604s-17.73 15.156-15.46 18.799c2.27 3.644 12.88 1.135 23.69-5.604Z" fill="#000"/><path opacity=".6" d="M1166.68 138.596c-49.71-3.706-105.11 10.032-155.1 42.324-58.34 37.649-96.666 92.338-109.408 147.347a21.809 21.809 0 0 1 .128-5.087c8.359-57.812 45.533-115.965 105.1-154.447 47.83-30.891 101.26-43.348 149.51-38.71 2.25.228 4.43.962 6.36 2.149a15.02 15.02 0 0 1 4.79 4.702l1.42 2.192c-.92-.242-1.86-.399-2.8-.47Z" fill="#fff"/><path opacity=".1" d="M1155.41 270.049c2.45.328 4.93.598 7.41.819a242.66 242.66 0 0 0 38.8-58.502 55.084 55.084 0 0 1-4.43-6.019c-.26-.42-.5-.847-.76-1.274a225.355 225.355 0 0 1-41.02 64.976Z" fill="#000"/><path opacity=".1" d="M1155.41 270.049c-.84.949-1.68 1.876-2.53 2.782l-.6.641c-.85.917-1.71 1.835-2.58 2.739 1.18.199 2.36.384 3.56.555h.19c1.16.17 2.33.32 3.49.455 20.65 2.441 41.59.284 61.32-6.316a141.05 141.05 0 0 0 52.77-31.86c2.18-2.078 2.52-3.308 2.03-5.962-.26.377-14.09 13.034-22.26 18.184-26.85 16.933-58.44 22.233-88.01 19.622-2.49-.221-4.98-.491-7.42-.818l.04-.022Zm.06-212.892c-18.92 16.307-27.55 42.922-17.36 65.14-24.09.235-46.48 4.347-71.06 12.379a135.35 135.35 0 0 0-1.65 5.179c-.18.619-.38 1.245-.55 1.864 28.31-9.348 57.03-13.111 84.33-11.518-.27-.412-.55-.811-.82-1.231a41.55 41.55 0 0 1-1.11-1.871c-.15-.256-.29-.519-.44-.782-.15-.264-.38-.712-.57-1.046-.18-.334-.35-.712-.52-1.032-.12-.242-.24-.476-.35-.711-.19-.391-.37-.783-.55-1.174a52.59 52.59 0 0 1-3.3-32.776 52.64 52.64 0 0 1 16.82-28.323 7.195 7.195 0 0 0 2.43-4.36 7.177 7.177 0 0 0-1.01-4.889l-.57-.896c-.3-.49-.67-.94-1.09-1.337a7.752 7.752 0 0 1-.31 4.05 7.687 7.687 0 0 1-2.32 3.334Z" fill="#000"/><path d="M1009.84 217.986a2.908 2.908 0 0 1-.38-2.226 2.94 2.94 0 0 1 3.53-2.223 2.96 2.96 0 0 1 1.84 1.305c.21.327.35.692.42 1.074.06.382.05.773-.03 1.151a3.11 3.11 0 0 1-.47 1.052 2.9 2.9 0 0 1-.84.792 2.95 2.95 0 0 1-4.07-.925Zm47.53 75.363a2.952 2.952 0 1 1 5.38-.924 2.954 2.954 0 0 1-1.3 1.849 2.966 2.966 0 0 1-4.08-.925Zm-14.31-83.352c.09-.381.25-.741.47-1.06.23-.318.51-.589.85-.796a2.94 2.94 0 0 1 2.24-.371c.38.085.74.245 1.06.471.32.226.59.512.79.843.21.331.35.699.41 1.084.07.385.05.779-.03 1.159-.09.38-.25.74-.48 1.058-.22.318-.51.588-.84.795-.33.207-.7.346-1.08.411a2.995 2.995 0 0 1-2.22-.51 2.822 2.822 0 0 1-.79-.843c-.21-.33-.35-.699-.42-1.083a3.01 3.01 0 0 1 .04-1.158Zm-19.68 86.895c.09-.38.25-.74.48-1.058.22-.318.51-.588.84-.795a2.966 2.966 0 0 1 2.24-.374 2.975 2.975 0 0 1 1.86 1.314c.2.331.34.7.41 1.085.06.385.05.779-.04 1.159s-.25.74-.47 1.059c-.23.318-.52.589-.85.796a2.948 2.948 0 0 1-2.24.371 2.956 2.956 0 0 1-1.86-1.314 3.2 3.2 0 0 1-.41-1.084c-.06-.385-.05-.779.04-1.159Zm56.83-35.835c.38.085.74.246 1.06.471.31.226.59.512.79.843.21.331.35.699.41 1.084.07.385.05.779-.04 1.159-.08.38-.24.74-.47 1.058-.22.318-.51.588-.84.795a2.965 2.965 0 0 1-2.24.374 2.99 2.99 0 0 1-1.06-.471 2.99 2.99 0 0 1-.8-.843c-.21-.331-.35-.7-.41-1.085a3.01 3.01 0 0 1 .04-1.158c.09-.381.25-.741.47-1.06.23-.318.51-.589.84-.796.33-.207.7-.346 1.09-.41.38-.064.78-.051 1.16.039Zm-86.907-19.679a2.96 2.96 0 0 1 1.858 1.313c.207.331.346.7.41 1.085.063.386.049.78-.041 1.16a2.963 2.963 0 0 1-1.314 1.855 2.945 2.945 0 0 1-2.244.371 2.944 2.944 0 0 1-1.855-1.314 2.938 2.938 0 0 1-.371-2.243 2.941 2.941 0 0 1 3.557-2.227Z" fill="#00A3C4"/><path d="M1028.55 241.563c-.08.633.03 1.274.32 1.843.29.568.74 1.039 1.29 1.351a3.225 3.225 0 0 0 3.57-.276c.5-.394.87-.929 1.07-1.535.2-.606.21-1.257.03-1.87a3.155 3.155 0 0 0-1.01-1.572 3.19 3.19 0 0 0-1.71-.744 3.219 3.219 0 0 0-3.56 2.803Zm3.16.712a.299.299 0 0 1-.21-.121.292.292 0 0 1-.07-.235.26.26 0 0 1 .04-.119c.02-.037.05-.07.08-.095a.287.287 0 0 1 .11-.056.325.325 0 0 1 .13-.007c.04.001.08.012.12.031.04.02.08.047.11.081s.05.073.06.116c.01.042.02.087.01.131 0 .044-.02.086-.04.124a.26.26 0 0 1-.09.097.316.316 0 0 1-.25.053Z" fill="#FAFAFB"/><path d="m1026.95 227.569-6.4 4.184a7.222 7.222 0 0 0-2.13 9.96l21.6 33.181a7.21 7.21 0 0 0 4.54 3.12c1.86.4 3.81.046 5.42-.985l6.4-4.184a7.222 7.222 0 0 0 2.13-9.96l-21.6-33.181a7.21 7.21 0 0 0-4.54-3.12 7.236 7.236 0 0 0-5.42.985Zm20.64 27.12a8.298 8.298 0 0 1 4 2.682 8.317 8.317 0 0 1 .9 9.183 8.335 8.335 0 0 1-3.42 3.405 8.293 8.293 0 0 1-9.18-.916 8.32 8.32 0 0 1-2.67-4.012 8.333 8.333 0 0 1 1.54-7.681 8.323 8.323 0 0 1 5.63-2.985c1.09-.103 2.19.01 3.23.332l-.03-.008Zm-7.64-11.731a8.315 8.315 0 0 1-6.02 6.992 8.316 8.316 0 0 1-8.77-2.884 8.37 8.37 0 0 1-1.74-4.495 8.388 8.388 0 0 1 1.05-4.704 8.315 8.315 0 0 1 8.24-4.158c1.09.126 2.14.466 3.09 1a8.255 8.255 0 0 1 2.47 2.111 8.154 8.154 0 0 1 1.47 2.898 8.43 8.43 0 0 1 .24 3.24h-.03Z" fill="#FAFAFB"/><path d="m1027.87 242.673-.34-.1-.19.264-.18.05-.18-.207-.13.292h-.11l-.24-.192-.12.292h-.06l-.28-.221-.18.341h-.11l-.23-.263-.15.37h-.09l-.26-.192-.24.256-.36-.142-.13.363a8.098 8.098 0 0 0 2.23 3.735h.35v-.335h.33v-.327h.4l-.07-.37.41.05v-.285l.36-.17.06-.164.27-.071v-.27l.42-.171.05-.477a4.271 4.271 0 0 1-1.17-2.063l-.06.007Zm11.12 22.176-.31-.121-.15.299-.3-.164-.12.327a8.001 8.001 0 0 0 2.51 3.558l.39.035v-.384l.34-.121-.07-.313.05-.064h.4l-.15-.32c.03-.03.05-.061.07-.093h.39l-.09-.341v-.043h.32l-.08-.306.07-.085h.32l-.11-.256.12-.143.31-.071.05-.348-.05-.043a4.3 4.3 0 0 1-1.42-1.907l-.47-.149-.31.306-.24-.135-.17.22h-.17l-.31.263-.26-.135-.12.392-.3-.221-.14.363Zm5.27.861c.61.187 1.27.19 1.88.007a3.248 3.248 0 0 0 1.56-1.034c.4-.492.65-1.093.72-1.728a3.254 3.254 0 0 0-.36-1.837 3.22 3.22 0 0 0-3.16-1.696c-.63.061-1.23.309-1.73.713-.49.404-.85.945-1.04 1.555a3.3 3.3 0 0 0-.13 1.249c.04.421.17.83.36 1.203.2.374.47.704.8.973.32.269.7.471 1.1.595Zm.64-3.173a.312.312 0 0 1 .15-.189.337.337 0 0 1 .36.03.26.26 0 0 1 .09.097c.02.038.03.08.04.123 0 .044 0 .087-.01.129-.01.042-.04.081-.06.114a.362.362 0 0 1-.11.08.262.262 0 0 1-.12.033.326.326 0 0 1-.13-.019.413.413 0 0 1-.12-.058.38.38 0 0 1-.08-.101.271.271 0 0 1-.03-.125c0-.044 0-.088.02-.129v.015Z" fill="#FAFAFB"/><path d="M1023.5 240.951c-.19 1.63.09 3.283.83 4.748a8.3 8.3 0 0 0 3.33 3.487 8.307 8.307 0 0 0 11.97-4.633c.52-1.56.56-3.237.12-4.819a8.277 8.277 0 0 0-2.59-4.069 8.307 8.307 0 0 0-10.53-.247 8.18 8.18 0 0 0-2.11 2.456 8.389 8.389 0 0 0-1.02 3.077Zm5.56 3.842-.05.477-.41.171v.27l-.27.071-.07.164-.36.171v.284l-.4-.05.07.37h-.4v.328h-.34v.334h-.34a7.933 7.933 0 0 1-2.23-3.735l.13-.363.35.142.24-.256.26.192h.09l.15-.37.23.264h.11l.19-.342.28.221h.05l.12-.292.25.192h.1l.13-.292.19.207.17-.05.2-.263.34.099v.057c.18.784.59 1.5 1.16 2.063l.06-.064Zm5.88-2.447c-.07.633-.33 1.23-.75 1.716a3.208 3.208 0 0 1-4.97-.091 3.228 3.228 0 0 1-.28-3.568 3.213 3.213 0 0 1 3.19-1.614c.85.101 1.62.533 2.14 1.199.53.667.77 1.515.67 2.358Zm2.32 17.864a8.337 8.337 0 0 0-.01 4.822 8.406 8.406 0 0 0 2.67 4.014 8.299 8.299 0 0 0 9.18.922 8.333 8.333 0 0 0 3.42-3.404 8.263 8.263 0 0 0 .95-4.727 8.317 8.317 0 0 0-1.84-4.457 8.314 8.314 0 0 0-4.01-2.683 8.258 8.258 0 0 0-3.22-.324 8.314 8.314 0 0 0-5.61 2.984 8.376 8.376 0 0 0-1.53 2.853Zm4.86 1.48a3.25 3.25 0 0 1 1.04-1.548 3.22 3.22 0 0 1 3.56-.339c.56.301 1.02.762 1.32 1.323.3.562.42 1.199.36 1.832a3.3 3.3 0 0 1-.72 1.722c-.41.491-.95.85-1.56 1.034a3.224 3.224 0 0 1-2.97-.599c-.33-.269-.6-.599-.79-.973-.2-.373-.32-.782-.36-1.203-.04-.42 0-.845.12-1.249Zm-2.64 2.995.12-.391.25.135.31-.263h.17l.17-.221.24.135.32-.305.46.149a4.38 4.38 0 0 0 1.42 1.907l.05.042-.05.349-.31.071-.12.142.11.256h-.33l-.07.086.08.306h-.32v.042l.09.342h-.39a.457.457 0 0 1-.07.092l.15.321h-.4l-.06.064.08.313-.34.121v.384l-.39-.036a7.993 7.993 0 0 1-2.51-3.557l.12-.327.3.163.15-.298.3.12.16-.37.31.221v.007Z" fill="#211B19"/><path d="M1045.13 262.936a.345.345 0 0 0 .26-.014c.04-.02.07-.047.1-.08a.262.262 0 0 0 .06-.114c.01-.042.02-.086.01-.129a.346.346 0 0 0-.12-.221.401.401 0 0 0-.12-.055.342.342 0 0 0-.25.025.312.312 0 0 0-.15.189.526.526 0 0 0-.02.125c.01.042.02.083.04.12a.304.304 0 0 0 .19.154Zm-13.34-21.294a.325.325 0 0 0-.13.007.287.287 0 0 0-.11.056.352.352 0 0 0-.08.095.26.26 0 0 0-.04.119c-.01.063 0 .127.03.184a.32.32 0 0 0 .31.177.325.325 0 0 0 .28-.22c.02-.06.02-.125.01-.186a.423.423 0 0 0-.1-.157.326.326 0 0 0-.17-.075Z" fill="#211B19"/><path d="m1069.47 246.743-13.45-20.632a34.156 34.156 0 0 0-9.61-4.866l9.73 14.94-6.53 4.268-8.86-13.602a11.727 11.727 0 0 0-16.19-3.422l-6.87 4.467a11.743 11.743 0 0 0-5.05 7.39c-.64 3.035-.06 6.2 1.63 8.803l21.93 33.687a11.698 11.698 0 0 0 7.39 5.053c3.03.641 6.2.055 8.8-1.631l6.86-4.468a11.72 11.72 0 0 0 5.06-7.39c.64-3.034.05-6.199-1.63-8.803l-8.85-13.595 6.53-4.269 9.67 14.869c.38-3.607.2-7.251-.56-10.799Zm-10.95 16.121a7.222 7.222 0 0 1-2.13 9.96l-6.41 4.183a7.22 7.22 0 0 1-5.42.986 7.266 7.266 0 0 1-4.54-3.12l-21.6-33.182a7.23 7.23 0 0 1-.98-5.42 7.224 7.224 0 0 1 3.12-4.54l6.4-4.183a7.24 7.24 0 0 1 5.42-.986c1.87.4 3.5 1.522 4.54 3.12l21.6 33.182Z" fill="#211B19"/><path opacity=".11" d="M1033.44 268.214a28.328 28.328 0 0 1-14.85 4.372 28.377 28.377 0 0 1-14.94-4.087 35.31 35.31 0 0 0 2.32 4.332 34.829 34.829 0 0 0 31.22 16.199 34.822 34.822 0 0 0 29.41-19.294 34.782 34.782 0 0 0-2.44-35.085 34.743 34.743 0 0 0-13.85-11.835 34.81 34.81 0 0 0-17.93-3.215 28.314 28.314 0 0 1 10.3 10.121 28.327 28.327 0 0 1 3.99 13.884c.1 4.894-1.06 9.733-3.37 14.045a28.413 28.413 0 0 1-9.86 10.563Z" fill="#0CFFE1"/></g><defs><radialGradient id="c" cx="0" cy="0" r="1" gradientUnits="userSpaceOnUse" gradientTransform="matrix(-138.53983 93.47092 -42.98237 -63.7072 1209.05 154.491)"><stop stop-color="#D9674D"/><stop offset=".03" stop-color="#DA6350" stop-opacity=".93"/><stop offset=".12" stop-color="#DF565A" stop-opacity=".72"/><stop offset=".21" stop-color="#E34B63" stop-opacity=".52"/><stop offset=".32" stop-color="#E6416B" stop-opacity=".36"/><stop offset=".42" stop-color="#E83A71" stop-opacity=".23"/><stop offset=".54" stop-color="#EA3476" stop-opacity=".13"/><stop offset=".66" stop-color="#EC2F79" stop-opacity=".06"/><stop offset=".8" stop-color="#ED2D7B" stop-opacity=".01"/><stop offset="1" stop-color="#ED2C7C" stop-opacity="0"/></radialGradient><radialGradient id="d" cx="0" cy="0" r="1" gradientUnits="userSpaceOnUse" gradientTransform="rotate(145.993 580.904 262.108) scale(167.123 76.8507)"><stop stop-color="#D9674D"/><stop offset=".03" stop-color="#DA6350" stop-opacity=".93"/><stop offset=".12" stop-color="#DF565A" stop-opacity=".72"/><stop offset=".21" stop-color="#E34B63" stop-opacity=".52"/><stop offset=".32" stop-color="#E6416B" stop-opacity=".36"/><stop offset=".42" stop-color="#E83A71" stop-opacity=".23"/><stop offset=".54" stop-color="#EA3476" stop-opacity=".13"/><stop offset=".66" stop-color="#EC2F79" stop-opacity=".06"/><stop offset=".8" stop-color="#ED2D7B" stop-opacity=".01"/><stop offset="1" stop-color="#ED2C7C" stop-opacity="0"/></radialGradient><radialGradient id="e" cx="0" cy="0" r="1" gradientUnits="userSpaceOnUse" gradientTransform="rotate(145.993 580.904 262.108) scale(167.123 76.8508)"><stop stop-color="#D9674D"/><stop offset=".03" stop-color="#DA6350" stop-opacity=".93"/><stop offset=".12" stop-color="#DF565A" stop-opacity=".72"/><stop offset=".21" stop-color="#E34B63" stop-opacity=".52"/><stop offset=".32" stop-color="#E6416B" stop-opacity=".36"/><stop offset=".42" stop-color="#E83A71" stop-opacity=".23"/><stop offset=".54" stop-color="#EA3476" stop-opacity=".13"/><stop offset=".66" stop-color="#EC2F79" stop-opacity=".06"/><stop offset=".8" stop-color="#ED2D7B" stop-opacity=".01"/><stop offset="1" stop-color="#ED2C7C" stop-opacity="0"/></radialGradient><radialGradient id="f" cx="0" cy="0" r="1" gradientUnits="userSpaceOnUse" gradientTransform="matrix(-138.539 93.47036 -42.98215 -63.70687 1209.05 154.491)"><stop stop-color="#D9674D"/><stop offset=".03" stop-color="#DA6350" stop-opacity=".93"/><stop offset=".12" stop-color="#DF565A" stop-opacity=".72"/><stop offset=".21" stop-color="#E34B63" stop-opacity=".52"/><stop offset=".32" stop-color="#E6416B" stop-opacity=".36"/><stop offset=".42" stop-color="#E83A71" stop-opacity=".23"/><stop offset=".54" stop-color="#EA3476" stop-opacity=".13"/><stop offset=".66" stop-color="#EC2F79" stop-opacity=".06"/><stop offset=".8" stop-color="#ED2D7B" stop-opacity=".01"/><stop offset="1" stop-color="#ED2C7C" stop-opacity="0"/></radialGradient><radialGradient id="g" cx="0" cy="0" r="1" gradientUnits="userSpaceOnUse" gradientTransform="matrix(-138.53983 93.47092 -42.98226 -63.70703 1209.05 154.491)"><stop stop-color="#D9674D"/><stop offset=".03" stop-color="#DA6350" stop-opacity=".93"/><stop offset=".12" stop-color="#DF565A" stop-opacity=".72"/><stop offset=".21" stop-color="#E34B63" stop-opacity=".52"/><stop offset=".32" stop-color="#E6416B" stop-opacity=".36"/><stop offset=".42" stop-color="#E83A71" stop-opacity=".23"/><stop offset=".54" stop-color="#EA3476" stop-opacity=".13"/><stop offset=".66" stop-color="#EC2F79" stop-opacity=".06"/><stop offset=".8" stop-color="#ED2D7B" stop-opacity=".01"/><stop offset="1" stop-color="#ED2C7C" stop-opacity="0"/></radialGradient><radialGradient id="h" cx="0" cy="0" r="1" gradientUnits="userSpaceOnUse" gradientTransform="matrix(14919.6334 1231.83422 -886.83934 10741.1514 171533 23239.5)"><stop stop-color="#D9674D"/><stop offset=".03" stop-color="#DA6350" stop-opacity=".93"/><stop offset=".12" stop-color="#DF565A" stop-opacity=".72"/><stop offset=".21" stop-color="#E34B63" stop-opacity=".52"/><stop offset=".32" stop-color="#E6416B" stop-opacity=".36"/><stop offset=".42" stop-color="#E83A71" stop-opacity=".23"/><stop offset=".54" stop-color="#EA3476" stop-opacity=".13"/><stop offset=".66" stop-color="#EC2F79" stop-opacity=".06"/><stop offset=".8" stop-color="#ED2D7B" stop-opacity=".01"/><stop offset="1" stop-color="#ED2C7C" stop-opacity="0"/></radialGradient><radialGradient id="i" cx="0" cy="0" r="1" gradientUnits="userSpaceOnUse" gradientTransform="matrix(-138.51701 93.5083 -43.00884 -63.71045 1209.04 154.476)"><stop stop-color="#D9674D"/><stop offset=".03" stop-color="#DA6350" stop-opacity=".93"/><stop offset=".12" stop-color="#DF565A" stop-opacity=".72"/><stop offset=".21" stop-color="#E34B63" stop-opacity=".52"/><stop offset=".32" stop-color="#E6416B" stop-opacity=".36"/><stop offset=".42" stop-color="#E83A71" stop-opacity=".23"/><stop offset=".54" stop-color="#EA3476" stop-opacity=".13"/><stop offset=".66" stop-color="#EC2F79" stop-opacity=".06"/><stop offset=".8" stop-color="#ED2D7B" stop-opacity=".01"/><stop offset="1" stop-color="#ED2C7C" stop-opacity="0"/></radialGradient><radialGradient id="j" cx="0" cy="0" r="1" gradientUnits="userSpaceOnUse" gradientTransform="rotate(-174.29 609.42 76.642) scale(4.60473 4.60423)"><stop stop-color="#D9674D"/><stop offset=".11" stop-color="#DA654E" stop-opacity=".97"/><stop offset=".24" stop-color="#DB6152" stop-opacity=".9"/><stop offset=".4" stop-color="#DE5A58" stop-opacity=".77"/><stop offset=".57" stop-color="#E14F60" stop-opacity=".6"/><stop offset=".75" stop-color="#E5426A" stop-opacity=".38"/><stop offset=".93" stop-color="#EB3277" stop-opacity=".11"/><stop offset="1" stop-color="#ED2C7C" stop-opacity="0"/></radialGradient><radialGradient id="k" cx="0" cy="0" r="1" gradientUnits="userSpaceOnUse" gradientTransform="rotate(-174.29 609.42 76.643) scale(4.60466 4.60456)"><stop stop-color="#D9674D"/><stop offset=".11" stop-color="#DA654E" stop-opacity=".97"/><stop offset=".24" stop-color="#DB6152" stop-opacity=".9"/><stop offset=".4" stop-color="#DE5A58" stop-opacity=".77"/><stop offset=".57" stop-color="#E14F60" stop-opacity=".6"/><stop offset=".75" stop-color="#E5426A" stop-opacity=".38"/><stop offset=".93" stop-color="#EB3277" stop-opacity=".11"/><stop offset="1" stop-color="#ED2C7C" stop-opacity="0"/></radialGradient><radialGradient id="l" cx="0" cy="0" r="1" gradientUnits="userSpaceOnUse" gradientTransform="rotate(145.993 580.904 262.108) scale(167.121 76.8505)"><stop stop-color="#D9674D"/><stop offset=".03" stop-color="#DA6350" stop-opacity=".93"/><stop offset=".12" stop-color="#DF565A" stop-opacity=".72"/><stop offset=".21" stop-color="#E34B63" stop-opacity=".52"/><stop offset=".32" stop-color="#E6416B" stop-opacity=".36"/><stop offset=".42" stop-color="#E83A71" stop-opacity=".23"/><stop offset=".54" stop-color="#EA3476" stop-opacity=".13"/><stop offset=".66" stop-color="#EC2F79" stop-opacity=".06"/><stop offset=".8" stop-color="#ED2D7B" stop-opacity=".01"/><stop offset="1" stop-color="#ED2C7C" stop-opacity="0"/></radialGradient><radialGradient id="m" cx="0" cy="0" r="1" gradientUnits="userSpaceOnUse" gradientTransform="rotate(-174.289 609.42 76.638) scale(4.60459)"><stop stop-color="#D9674D"/><stop offset=".11" stop-color="#DA654E" stop-opacity=".97"/><stop offset=".24" stop-color="#DB6152" stop-opacity=".9"/><stop offset=".4" stop-color="#DE5A58" stop-opacity=".77"/><stop offset=".57" stop-color="#E14F60" stop-opacity=".6"/><stop offset=".75" stop-color="#E5426A" stop-opacity=".38"/><stop offset=".93" stop-color="#EB3277" stop-opacity=".11"/><stop offset="1" stop-color="#ED2C7C" stop-opacity="0"/></radialGradient><radialGradient id="n" cx="0" cy="0" r="1" gradientUnits="userSpaceOnUse" gradientTransform="matrix(14.7078 0 0 14.6739 -23671.4 -15193.7)"><stop stop-color="#D9674D"/><stop offset=".11" stop-color="#DA654E" stop-opacity=".97"/><stop offset=".24" stop-color="#DB6152" stop-opacity=".9"/><stop offset=".4" stop-color="#DE5A58" stop-opacity=".77"/><stop offset=".57" stop-color="#E14F60" stop-opacity=".6"/><stop offset=".75" stop-color="#E5426A" stop-opacity=".38"/><stop offset=".93" stop-color="#EB3277" stop-opacity=".11"/><stop offset="1" stop-color="#ED2C7C" stop-opacity="0"/></radialGradient><radialGradient id="o" cx="0" cy="0" r="1" gradientUnits="userSpaceOnUse" gradientTransform="matrix(7.43131 0 0 6.8739 -11381.6 -7044.17)"><stop stop-color="#D9674D"/><stop offset=".11" stop-color="#DA654E" stop-opacity=".97"/><stop offset=".24" stop-color="#DB6152" stop-opacity=".9"/><stop offset=".4" stop-color="#DE5A58" stop-opacity=".77"/><stop offset=".57" stop-color="#E14F60" stop-opacity=".6"/><stop offset=".75" stop-color="#E5426A" stop-opacity=".38"/><stop offset=".93" stop-color="#EB3277" stop-opacity=".11"/><stop offset="1" stop-color="#ED2C7C" stop-opacity="0"/></radialGradient><radialGradient id="p" cx="0" cy="0" r="1" gradientUnits="userSpaceOnUse" gradientTransform="rotate(145.994 580.904 262.102) scale(167.126 76.8514)"><stop stop-color="#D9674D"/><stop offset=".03" stop-color="#DA6350" stop-opacity=".93"/><stop offset=".12" stop-color="#DF565A" stop-opacity=".72"/><stop offset=".21" stop-color="#E34B63" stop-opacity=".52"/><stop offset=".32" stop-color="#E6416B" stop-opacity=".36"/><stop offset=".42" stop-color="#E83A71" stop-opacity=".23"/><stop offset=".54" stop-color="#EA3476" stop-opacity=".13"/><stop offset=".66" stop-color="#EC2F79" stop-opacity=".06"/><stop offset=".8" stop-color="#ED2D7B" stop-opacity=".01"/><stop offset="1" stop-color="#ED2C7C" stop-opacity="0"/></radialGradient><radialGradient id="q" cx="0" cy="0" r="1" gradientUnits="userSpaceOnUse" gradientTransform="matrix(29.7184 0 0 29.7168 -34362.3 -21816.8)"><stop stop-color="#D9674D"/><stop offset=".11" stop-color="#DA654E" stop-opacity=".97"/><stop offset=".24" stop-color="#DB6152" stop-opacity=".9"/><stop offset=".4" stop-color="#DE5A58" stop-opacity=".77"/><stop offset=".57" stop-color="#E14F60" stop-opacity=".6"/><stop offset=".75" stop-color="#E5426A" stop-opacity=".38"/><stop offset=".93" stop-color="#EB3277" stop-opacity=".11"/><stop offset="1" stop-color="#ED2C7C" stop-opacity="0"/></radialGradient><radialGradient id="r" cx="0" cy="0" r="1" gradientUnits="userSpaceOnUse" gradientTransform="matrix(-1473.29348 983.568 -449.81423 -673.77993 35643.6 44604.3)"><stop stop-color="#D9674D"/><stop offset=".03" stop-color="#DA6350" stop-opacity=".93"/><stop offset=".12" stop-color="#DF565A" stop-opacity=".72"/><stop offset=".21" stop-color="#E34B63" stop-opacity=".52"/><stop offset=".32" stop-color="#E6416B" stop-opacity=".36"/><stop offset=".42" stop-color="#E83A71" stop-opacity=".23"/><stop offset=".54" stop-color="#EA3476" stop-opacity=".13"/><stop offset=".66" stop-color="#EC2F79" stop-opacity=".06"/><stop offset=".8" stop-color="#ED2D7B" stop-opacity=".01"/><stop offset="1" stop-color="#ED2C7C" stop-opacity="0"/></radialGradient><radialGradient id="s" cx="0" cy="0" r="1" gradientUnits="userSpaceOnUse" gradientTransform="matrix(-40.08891 -3.83894 3.83883 -40.08781 35331.4 26356.6)"><stop stop-color="#D9674D"/><stop offset=".11" stop-color="#DA654E" stop-opacity=".97"/><stop offset=".24" stop-color="#DB6152" stop-opacity=".9"/><stop offset=".4" stop-color="#DE5A58" stop-opacity=".77"/><stop offset=".57" stop-color="#E14F60" stop-opacity=".6"/><stop offset=".75" stop-color="#E5426A" stop-opacity=".38"/><stop offset=".93" stop-color="#EB3277" stop-opacity=".11"/><stop offset="1" stop-color="#ED2C7C" stop-opacity="0"/></radialGradient><radialGradient id="t" cx="0" cy="0" r="1" gradientUnits="userSpaceOnUse" gradientTransform="matrix(-138.53983 93.47092 -42.98226 -63.70703 1209.05 154.491)"><stop stop-color="#D9674D"/><stop offset=".03" stop-color="#DA6350" stop-opacity=".93"/><stop offset=".12" stop-color="#DF565A" stop-opacity=".72"/><stop offset=".21" stop-color="#E34B63" stop-opacity=".52"/><stop offset=".32" stop-color="#E6416B" stop-opacity=".36"/><stop offset=".42" stop-color="#E83A71" stop-opacity=".23"/><stop offset=".54" stop-color="#EA3476" stop-opacity=".13"/><stop offset=".66" stop-color="#EC2F79" stop-opacity=".06"/><stop offset=".8" stop-color="#ED2D7B" stop-opacity=".01"/><stop offset="1" stop-color="#ED2C7C" stop-opacity="0"/></radialGradient><radialGradient id="u" cx="0" cy="0" r="1" gradientUnits="userSpaceOnUse" gradientTransform="matrix(24.5064 0 0 24.5056 -31324.8 -19851.7)"><stop stop-color="#D9674D"/><stop offset=".11" stop-color="#DA654E" stop-opacity=".97"/><stop offset=".24" stop-color="#DB6152" stop-opacity=".9"/><stop offset=".4" stop-color="#DE5A58" stop-opacity=".77"/><stop offset=".57" stop-color="#E14F60" stop-opacity=".6"/><stop offset=".75" stop-color="#E5426A" stop-opacity=".38"/><stop offset=".93" stop-color="#EB3277" stop-opacity=".11"/><stop offset="1" stop-color="#ED2C7C" stop-opacity="0"/></radialGradient><linearGradient id="b" x1="675.9" y1="0" x2="675.9" y2="790.79" gradientUnits="userSpaceOnUse"><stop stop-color="#F4D51D"/><stop offset=".14" stop-color="#F4CC1E"/><stop offset=".37" stop-color="#F5B523"/><stop offset=".65" stop-color="#F68F29"/><stop offset=".69" stop-color="#F6892A"/><stop offset="1" stop-color="#FF1E4F"/></linearGradient><linearGradient id="v" x1="996.479" y1="252.295" x2="1074.31" y2="256.333" gradientUnits="userSpaceOnUse"><stop stop-color="#323440"/><stop offset=".58" stop-color="#343642"/><stop offset=".92" stop-color="#3B3E4B"/><stop offset="1" stop-color="#3E414E"/></linearGradient><clipPath id="a"><path fill="#fff" d="M0 0h1366v715H0z"/></clipPath></defs></svg>